<?xml version="1.0" encoding="UTF-8"?>
<svg width="42px" height="41px" viewBox="0 0 42 41" version="1.1" xmlns="http://www.w3.org/2000/svg" xmlns:xlink="http://www.w3.org/1999/xlink">
    <title>home-block-6-icon4</title>
    <g id="页面-1" stroke="none" stroke-width="1" fill="none" fill-rule="evenodd">
        <g id="SEAGM3" transform="translate(-1432.000000, -4035.000000)" fill="#EAEAEA" fill-rule="nonzero">
            <g id="编组-4备份-3" transform="translate(1311.000000, 4035.000000)">
                <path d="M138.499097,15.9540558 C135.988581,13.7874375 130.134323,12.9161855 126.83529,16.0316081 C123.60671,19.0706902 121,26.398174 121,33.308814 C121,41.6469016 128.928516,42.8041278 133.249097,38.7083952 C135.751484,36.333355 135.988581,35.9625579 137.625226,34.080702 L146.374774,34.080702 C148.019548,35.9625579 148.247161,36.333355 150.750903,38.709607 C155.072839,42.8029161 163,41.6456899 163,33.3076022 C163,26.3969622 160.39329,19.0694784 157.163355,16.0316081 C153.865677,12.9149737 148.020903,13.7862257 145.500903,15.952844 C144.528129,16.7865316 142,17.1100703 142,17.1100703 C142,17.1100703 139.470516,16.7865316 138.499097,15.952844 L138.499097,15.9540558 Z M135.358067,20.6481482 L135.358067,22.9271605 L138.050647,22.9271605 C139.127391,22.9271605 140,23.6358025 140,24.4987654 C140,25.3629629 139.127391,26.0703704 138.050647,26.0703704 L135.358067,26.0703704 L135.358067,28.3493827 C135.358067,29.2617284 134.521398,30 133.500719,30 C132.48004,30 131.644808,29.2617284 131.644808,28.3493827 L131.644808,26.0728395 L128.950791,26.0728395 C127.874046,26.0728395 127,25.3654321 127,24.5012346 C127,23.6370371 127.872609,22.9296296 128.950791,22.9296296 L131.643371,22.9296296 L131.643371,20.6506173 C131.643371,19.7395062 132.477165,19 133.499281,19 C134.521398,19 135.358067,19.7382716 135.358067,20.6493827 L135.358067,20.6481482 Z M150,22.4999694 C150,21.1187795 151.117993,20 152.499226,20 C153.880458,20 155,21.1187796 155,22.4983982 C155,23.8811594 153.880458,24.9999389 152.499226,24.9999389 C151.128936,25.0095198 150.010226,23.8904767 150,22.4999694 L150,22.4999694 Z M147,25.5326575 C147,24.1341208 148.12109,23 149.499226,23 C150.87891,23 152,24.1341208 152,25.5326575 C151.95209,26.9437126 150.80127,28.0476583 149.429545,27.9984146 C148.112036,27.9696507 147.045711,26.8874331 147,25.5326575 L147,25.5326575 Z M154.998682,2.39999998 L154.998682,0 L151.499012,0 L151.499012,1.79908397 C151.499012,8.28458016 141,0.949007644 141,9.6012214 L141,12 L144.500988,12 C143.809224,3.15847327 155,12.8256488 155,2.39999998 L154.998682,2.39999998 Z" id="home-block-6-icon4"></path>
            </g>
        </g>
    </g>
</svg>