<?xml version="1.0" encoding="UTF-8"?>
<svg width="45px" height="36px" viewBox="0 0 45 36" version="1.1" xmlns="http://www.w3.org/2000/svg" xmlns:xlink="http://www.w3.org/1999/xlink">
    <title>home-block-6-icon1</title>
    <g id="页面-1" stroke="none" stroke-width="1" fill="none" fill-rule="evenodd">
        <g id="SEAGM3" transform="translate(-1098.000000, -3900.000000)" fill="#EAEAEA" fill-rule="nonzero">
            <g id="编组-4" transform="translate(973.000000, 3893.000000)">
                <g id="home-block-6-icon1" transform="translate(125.000000, 7.000000)">
                    <path d="M41.25,11.9782211 L43.125,8.9077677 C43.616197,8.42790059 43.7490766,7.70584032 43.4590479,7.09257008 C43.1690192,6.47929984 42.5162337,6.10201092 41.8180011,6.14409807 C41.1197685,6.18618522 40.5209012,6.63891964 40.3125,7.28223358 L38.8125,9.81084222 L35.25,7.82407827 L38.4375,2.76686099 C38.928697,2.28699387 39.0615766,1.56493361 38.7715479,0.951663364 C38.4815192,0.338393122 37.8287337,-0.0388957985 37.1305011,0.00319135247 C36.4322685,0.0452785035 35.8334012,0.498012916 35.625,1.14132686 L32.25,6.55977395 L27.1875,5.29546963 L28.875,2.58624607 C29.2273254,2.06252314 29.2372822,1.39073614 28.9006219,0.857537673 C28.5639615,0.324339203 27.9401282,0.0238763102 27.2953127,0.0843569943 C26.6504972,0.144837678 26.0985547,0.555582843 25.875,1.14132686 L23.4375,5.11485474 L22.5,5.11485474 C10.125,5.11485474 0,11.9782211 0,20.4671215 C0,28.956022 10.125,36 22.5,36 C34.875,36 45,29.1366369 45,20.4671215 C44.9233197,17.2795837 43.5812745,14.2415869 41.25,11.9782211 Z M22.5,29.8590965 C15.375,29.8590965 9.5625,25.7049537 9.5625,20.6477364 C9.5625,15.5905191 15.375,11.2557615 22.5,11.2557615 C29.625,11.2557615 35.4375,15.4099042 35.4375,20.4671215 C35.4375,25.5243389 29.625,29.8590965 22.5,29.8590965 Z" id="形状"></path>
                    <path d="M16,20 C16,22.1435935 17.2388929,24.1243556 19.25,25.1961524 C21.261107,26.2679492 23.738893,26.2679492 25.75,25.1961524 C27.7611071,24.1243556 29,22.1435935 29,20 C29,16.6862915 26.0898509,14 22.5,14 C18.9101491,14 16,16.6862915 16,20 Z" id="路径"></path>
                </g>
            </g>
        </g>
    </g>
</svg>