<?xml version="1.0" encoding="UTF-8"?>
<svg width="41px" height="42px" viewBox="0 0 41 42" version="1.1" xmlns="http://www.w3.org/2000/svg" xmlns:xlink="http://www.w3.org/1999/xlink">
    <title>home-block-6-icon3</title>
    <g id="页面-1" stroke="none" stroke-width="1" fill="none" fill-rule="evenodd">
        <g id="SEAGM3" transform="translate(-1113.000000, -4037.000000)" fill="#EAEAEA" fill-rule="nonzero">
            <g id="编组-4备份" transform="translate(973.000000, 4037.000000)">
                <g id="home-block-6-icon3" transform="translate(140.000000, 0.828571)">
                    <path d="M15.1799525,40.1714286 C15.1799525,40.1714286 -7.54585459,36.2679035 2.61520337,16.9016698 C2.61520337,16.9016698 4.92056171,19.0538033 4.60371149,20.0897959 C4.60371149,20.0897959 6.41012179,15.2007421 10.3142989,12.2827459 C13.6648987,9.77142861 17.0664858,2.71836737 13.9271196,0.171428571 C13.9271196,0.171428571 29.4782728,2.71836733 31.211844,15.4679035 C31.211844,15.4679035 33.2003521,11.4070501 37.2829851,11.0033395 C37.2829851,11.0033395 36.0301521,13.2356216 37.2829851,16.5840446 C37.2829851,16.5840446 50.1645844,33.7951763 27.966861,39.6133581 C27.966861,39.6133581 34.620715,33.7150278 20.5081345,23.5955473 C20.5081345,23.5955473 17.1793865,29.012987 15.1908784,30.9246753 C15.1835944,30.9276438 9.63325311,35.787013 15.1835944,40.1714286 L15.1799525,40.1714286 Z" id="路径"></path>
                </g>
            </g>
        </g>
    </g>
</svg>