<?xml version="1.0" encoding="UTF-8"?>
<svg width="150px" height="40px" viewBox="0 0 150 40" version="1.1" xmlns="http://www.w3.org/2000/svg" xmlns:xlink="http://www.w3.org/1999/xlink">
    <!-- Generator: Sketch 63 (92445) - https://sketch.com -->
    <title>纵向</title>
    <desc>Created with Sketch.</desc>
    <defs>
        <linearGradient x1="-2.19066607%" y1="10%" x2="102.190666%" y2="80%" id="linearGradient-1">
            <stop stop-color="#FDD518" offset="0%"></stop>
            <stop stop-color="#FDD118" offset="20%"></stop>
            <stop stop-color="#F9B01C" offset="50%"></stop>
            <stop stop-color="#F7931E" offset="70%"></stop>
            <stop stop-color="#F15A24" offset="100%"></stop>
        </linearGradient>
    </defs>
    <g id="页面-1" stroke="none" stroke-width="1" fill="none" fill-rule="evenodd">
        <g id="SEAGM1" transform="translate(-363.000000, -25.000000)">
            <g id="纵向" transform="translate(361.000000, 25.000000)">
                <g id="编组-8">
                    <rect id="矩形" fill-opacity="0" fill="#FFFFFF" x="0" y="0" width="152" height="40"></rect>
                    <path d="M31.7306502,0 L7.00619195,0 C6.28335913,2.3475 4.40348297,4.205 2,4.9 L2,20.9 C2,30.1925 7.00619195,33 12.2167183,35.95 L19.3684211,40 L26.5201238,35.95 C31.7306502,33 36.7368421,30.1925 36.7368421,20.9 L36.7368421,4.9 C34.3333591,4.205 32.453483,2.3475 31.7306502,0 Z" id="路径" fill="url(#linearGradient-1)" fill-rule="nonzero"></path>
                    <path d="M32.4736842,1.79169238 C32.340641,1.55180051 32.2201489,1.3046392 32.1172287,1.05263158 C21.8477952,5.6226928 12.4117647,10.3672208 11.5306669,16.8806485 C10.9708811,21.35863 18.5468162,19.4637266 18.5417957,22.3521216 C18.4037319,25.9747311 14.9772404,29.7475759 10.3684211,33.9687035 C10.8026943,34.2304037 11.2444984,34.4848345 11.6913229,34.7368421 C18.3736089,30.9397658 24.2902686,27.3898508 27.2975483,24.7898107 C31.0528826,21.0654288 31.8787549,17.2804683 25.849134,16.2142822 C17.8690486,14.7070828 21.9808384,9.28164956 32.4736842,1.79169238 Z" id="路径" fill="#000000" fill-rule="nonzero" opacity="0.1"></path>
                    <path d="M32.4736842,0.737241143 C32.3771331,0.496613826 32.2904846,0.250866778 32.2186901,-3.55271368e-15 L32.14442,-3.55271368e-15 C21.9347543,4.86118379 12.5049248,9.89387853 11.6285374,16.8234333 C11.0764629,21.554064 18.5480369,19.5522495 18.5430855,22.6036087 C18.404448,26.4638852 14.9706928,30.4828734 10.3684211,34.985676 C10.7769067,35.2621415 11.195295,35.5283674 11.6161591,35.7894737 C18.2757131,31.7372073 24.1876146,27.9486069 27.1782247,25.1788329 C30.881828,21.2443203 31.6963236,17.245811 25.7497627,16.1194704 C17.832568,14.5169949 21.9842677,8.72658006 32.4736842,0.737241143 Z" id="路径" fill="#FFFFFF" fill-rule="nonzero"></path>
                </g>
                <path d="M47.4736842,13.2266029 C47.4736842,15.3429665 48.4352779,17.2411483 49.9505163,18.4993301 C53.3670877,21.2266029 59.4936048,20.6011483 59.4936048,23.5102392 C59.4936048,24.4556938 58.721416,25.2266029 57.7743919,25.2266029 L53.1995373,25.2266029 L53.1995373,22.9429665 L48.0491834,22.9429665 L48.0491834,30.3684211 L57.7816767,30.3684211 C61.5770577,30.3684211 64.6512435,27.2993301 64.6512435,23.5102392 C64.6512435,21.3938756 63.6896498,19.4956938 62.1744114,18.237512 C59.4426112,15.9102392 52.6313229,16.2520574 52.6313229,13.2266029 C52.6313229,12.2811483 53.4035117,11.5102392 54.3505358,11.5102392 L58.9326752,11.5102392 L58.9326752,13.7938756 L64.0830291,13.7938756 L64.0830291,6.36842105 L54.343251,6.36842105 C50.54787,6.36842105 47.4736842,9.43751196 47.4736842,13.2266029 Z M69.231926,25.2255639 L69.231926,30.3684211 L74.3148402,30.3684211 L77.2481203,25.2255639 L69.231926,25.2255639 Z M82.9739734,16.0827068 L69.231926,16.0827068 L69.231926,21.2255639 L79.9667517,21.2255639 L82.9739734,16.0827068 Z M88.1272412,6.36842105 L69.231926,6.36842105 L69.231926,11.5112782 L85.1757524,11.5112782 L88.1272412,6.36842105 Z M100.151533,30.3684211 L100.151533,6.36842105 L94.1085102,6.36842105 L80.1110468,30.3684211 L100.151533,30.3684211 Z M94.9982649,14.9398496 L94.9982649,25.2255639 L89.2724118,25.2255639 L94.9982649,14.9398496 Z M105.3048,13.2266029 L105.3048,23.5102392 C105.3048,27.2993301 108.38029,30.3684211 112.177282,30.3684211 L122.48236,30.3684211 L122.48236,20.9429665 L117.329821,20.9429665 L117.329821,25.2266029 L112.177282,25.2266029 C111.229856,25.2266029 110.457339,24.4556938 110.457339,23.5102392 L110.457339,13.2266029 C110.457339,12.2811483 111.229856,11.5102392 112.177282,11.5102392 L122.48236,11.5102392 L122.48236,6.36842105 L112.177282,6.36842105 C108.38029,6.36842105 105.3048,9.43751196 105.3048,13.2266029 Z M145.730364,6.36842105 L139.659919,16.8702392 L133.589474,6.36842105 L127.635628,6.36842105 L127.635628,30.3684211 L132.787854,30.3684211 L132.787854,15.277512 L139.659919,27.1538756 L151.684211,6.36842105 L145.730364,6.36842105 Z M146.530943,25.5618766 L146.530943,30.3684211 L151.684211,30.3684211 L151.684211,16.6541353 L146.530943,25.5618766 Z" id="形状" fill="#000000" fill-rule="nonzero"></path>
            </g>
        </g>
    </g>
</svg>