<?xml version="1.0" encoding="UTF-8"?>
<svg width="22px" height="22px" viewBox="0 0 22 22" version="1.1" xmlns="http://www.w3.org/2000/svg" xmlns:xlink="http://www.w3.org/1999/xlink">
    <title>Platform-block-1-icon4</title>
    <g id="页面-1" stroke="none" stroke-width="1" fill="none" fill-rule="evenodd">
        <g id="SEAGM-COM" transform="translate(-622.000000, -582.000000)" fill="#FCAD00" fill-rule="nonzero">
            <g id="Platform-block-1-icon4" transform="translate(622.000000, 582.000000)">
                <path d="M22,8.54347826 C22,6.84782609 20.614,5.5 18.92,5.5 L3.08,5.5 C1.36400001,5.5 0,6.86956522 0,8.54347826 L0,18.9565217 C0,20.6521739 1.386,22 3.08,22 L18.92,22 C20.636,22 22,20.6304348 22,18.9565217 L22,16.4565217 L15.62,16.4565217 C14.102,16.4565217 12.87,15.2391304 12.87,13.7391304 C12.87,12.2391305 14.102,11.0217391 15.62,11.0217391 L22,11.0217391 L22,8.54347826 Z" id="路径"></path>
                <path d="M13.2,13.75 C13.2,14.6612698 13.9387302,15.4 14.85,15.4 C15.7612698,15.4 16.5,14.6612698 16.5,13.75 C16.5,12.8387302 15.7612698,12.1 14.85,12.1 C13.9387302,12.1 13.2,12.8387302 13.2,13.75 Z" id="路径"></path>
                <path d="M18.4491228,1.40104167 C17.462768,0.000799675456 15.382846,-0.42119107 13.8175439,0.461153204 L8.8,3.3 L19.8,3.3 L18.4491228,1.40104167 L18.4491228,1.40104167 Z" id="路径"></path>
            </g>
        </g>
    </g>
</svg>