<?xml version="1.0" encoding="UTF-8"?>
<svg width="21px" height="20px" viewBox="0 0 21 20" version="1.1" xmlns="http://www.w3.org/2000/svg" xmlns:xlink="http://www.w3.org/1999/xlink">
    <title>Platform-block-1-icon1</title>
    <g id="页面-1" stroke="none" stroke-width="1" fill="none" fill-rule="evenodd">
        <g id="SEAGM-COM" transform="translate(-360.000000, -539.000000)" fill="#FCAD00" fill-rule="nonzero">
            <g id="编组" transform="translate(360.000000, 539.000000)">
                <path d="M7.04586757,15.3854386 C7.31549795,15.3854386 7.57093726,15.434152 7.8121855,15.5315789 C8.05343373,15.6290058 8.26629982,15.7647076 8.45078377,15.9386842 C8.63526771,16.1126608 8.77717844,16.3179532 8.87651595,16.5545614 C8.97585346,16.7911696 9.02552221,17.0416959 9.02552221,17.3061404 C9.02552221,17.5705848 8.97585346,17.8211111 8.87651595,18.0577193 C8.77717844,18.2943275 8.63526771,18.4996199 8.45078377,18.6735965 C8.26629982,18.8475731 8.05343373,18.9867544 7.8121855,19.0911404 C7.57093726,19.1955263 7.31549795,19.2477193 7.04586757,19.2477193 C6.76204612,19.2477193 6.50305904,19.1955263 6.26890635,19.0911404 C6.03475365,18.9867544 5.82543533,18.8475731 5.64095138,18.6735965 C5.45646744,18.4996199 5.31455671,18.2943275 5.2152192,18.0577193 C5.11588169,17.8211111 5.06621294,17.5705848 5.06621294,17.3061404 C5.06621294,17.0416959 5.11588169,16.7911696 5.2152192,16.5545614 C5.31455671,16.3179532 5.45646744,16.1126608 5.64095138,15.9386842 C5.82543533,15.7647076 6.03475365,15.6290058 6.26890635,15.5315789 C6.50305904,15.434152 6.76204612,15.3854386 7.04586757,15.3854386 Z M15.9010969,15.427193 C16.1707273,15.427193 16.4297144,15.4759064 16.6780581,15.5733333 C16.9264019,15.6707602 17.139268,15.806462 17.3166564,15.9804386 C17.4940448,16.1544152 17.6359555,16.3597076 17.7423886,16.5963158 C17.8488216,16.832924 17.9020382,17.0834503 17.9020382,17.3478947 C17.9020382,17.6123392 17.8488216,17.8628655 17.7423886,18.0994737 C17.6359555,18.3360819 17.4940448,18.5413743 17.3166564,18.7153509 C17.139268,18.8893275 16.9264019,19.0285088 16.6780581,19.1328947 C16.4297144,19.2372807 16.1707273,19.2894737 15.9010969,19.2894737 C15.6314665,19.2894737 15.3760272,19.2372807 15.134779,19.1328947 C14.8935308,19.0285088 14.6842124,18.8893275 14.506824,18.7153509 C14.3294356,18.5413743 14.1875249,18.3360819 14.0810918,18.0994737 C13.9746588,17.8628655 13.9214423,17.6123392 13.9214423,17.3478947 C13.9214423,17.0834503 13.9746588,16.832924 14.0810918,16.5963158 C14.1875249,16.3597076 14.3294356,16.1544152 14.506824,15.9804386 C14.6842124,15.806462 14.8935308,15.6707602 15.134779,15.5733333 C15.3760272,15.4759064 15.6314665,15.427193 15.9010969,15.427193 Z M19.4772472,3.56894737 C19.8745973,3.56894737 20.1832531,3.62114035 20.4032147,3.72552632 C20.6231763,3.82991228 20.7792781,3.95865497 20.8715201,4.11175439 C20.9637621,4.2648538 21.0063353,4.42839181 20.9992398,4.60236842 C20.9921442,4.77634503 20.9673099,4.92596491 20.9247366,5.05122807 C20.8821634,5.17649123 20.7934692,5.43397661 20.658654,5.82368421 C20.5238388,6.21339181 20.3712848,6.64137427 20.2009919,7.10763158 C20.0306991,7.57388889 19.863954,8.03666667 19.7007566,8.49596491 C19.5375593,8.95526316 19.4133874,9.3171345 19.328241,9.58157895 C19.143757,10.1383041 18.9096043,10.5245322 18.6257829,10.7402632 C18.3419614,10.9559942 17.9942801,11.0638596 17.582739,11.0638596 L16.8589943,11.0638596 L15.4753647,11.0638596 L13.666003,11.0638596 L11.6863483,11.0638596 L6.4072693,11.0638596 L6.72656844,12.942807 L17.4550194,12.942807 C18.1361909,12.942807 18.4767766,13.2281287 18.4767766,13.7987719 C18.4767766,14.0771345 18.409369,14.3172222 18.2745538,14.5190351 C18.1397386,14.720848 17.873656,14.8217544 17.476306,14.8217544 L16.4545487,14.8217544 L14.4748941,14.8217544 L12.0269341,14.8217544 L9.53640083,14.8217544 L7.49288636,14.8217544 L6.32212287,14.8217544 C6.03830142,14.8217544 5.80060095,14.7591228 5.60902147,14.6338596 C5.41744199,14.5085965 5.25779242,14.3450585 5.13007277,14.1432456 C5.00235311,13.9414327 4.89946783,13.7222222 4.82141694,13.485614 C4.74336604,13.2490058 4.68305398,13.0263158 4.64048076,12.8175439 C4.62628969,12.7340351 4.58726424,12.5322222 4.52340441,12.2121053 C4.45954458,11.8919883 4.38149368,11.4918421 4.28925171,11.0116667 C4.19700974,10.5314912 4.09412446,9.99564327 3.98059588,9.40412281 C3.8670673,8.81260234 3.75353872,8.21760234 3.64001014,7.61912281 C3.37037976,6.21339181 3.06527169,4.64760234 2.72468595,2.92175439 L1.12819028,2.92175439 C0.915324186,2.92175439 0.737935778,2.8695614 0.596025052,2.76517544 C0.454114325,2.66078947 0.337037976,2.53552632 0.244796003,2.38938596 C0.152554031,2.24324561 0.0886942041,2.08666667 0.0532165225,1.91964912 C0.0177388408,1.75263158 0,1.59953216 0,1.46035088 C0,1.1819883 0.0957897404,0.952339181 0.287369221,0.771403509 C0.478948702,0.590467836 0.737935778,0.5 1.06433045,0.5 L1.53263585,0.5 L1.95836803,0.5 L2.49053325,0.5 L3.21427796,0.5 C3.49809941,0.5 3.72515657,0.541754386 3.89544944,0.625263158 C4.06574232,0.70877193 4.20055751,0.813157895 4.29989502,0.938421053 C4.39923252,1.06368421 4.47018789,1.19590643 4.5127611,1.33508772 C4.55533432,1.47426901 4.590812,1.5925731 4.61919415,1.69 C4.6475763,1.80134503 4.67595844,1.95792398 4.70434059,2.15973684 C4.73272273,2.36154971 4.76110488,2.56684211 4.78948702,2.77561404 C4.83206024,3.02614035 4.87463346,3.2905848 4.91720668,3.56894737 L19.4772472,3.56894737 Z" id="Platform-block-1-icon1"></path>
            </g>
        </g>
    </g>
</svg>