<?xml version="1.0" encoding="UTF-8"?>
<svg width="24px" height="24px" viewBox="0 0 24 24" version="1.1" xmlns="http://www.w3.org/2000/svg" xmlns:xlink="http://www.w3.org/1999/xlink">
    <title>Platform-block-2-icon3</title>
    <g id="页面-1" stroke="none" stroke-width="1" fill="none" fill-rule="evenodd">
        <g id="SEAGM-COM" transform="translate(-1027.000000, -1283.000000)" fill="#FCAD00" fill-rule="nonzero">
            <g id="Platform-block-2-icon3" transform="translate(1028.000000, 1284.000000)">
                <path d="M10.7846154,21 C11.6358974,21 12.4871795,20.8970496 13.3384615,20.6886378 C13.2333333,20.480226 13.0205128,20.3772756 12.7,20.480226 C13.0179487,19.0213434 13.2307692,18.2931576 13.8692308,17.6679222 C14.2948718,17.3565599 14.5076923,16.834275 14.1871795,16.4174513 C13.974359,16.1060891 13.5487179,15.8976773 13.2307692,16.0006277 C12.5923077,16.1035782 13.0179487,15.2724419 12.4871795,15.1669805 C11.9564103,15.0640301 11.2102564,14.0219711 10.4666667,13.7080979 C10.0410256,13.4996861 9.61538462,12.9799121 8.97692308,12.9799121 C8.44615385,12.9799121 7.59487179,13.4996861 7.59487179,13.0828625 C7.59487179,11.8323917 7.48974359,10.9987445 7.48974359,10.5819209 C7.48974359,10.2705587 7.27692308,10.4789705 8.12820513,10.4789705 C8.55384615,10.4789705 8.34102564,9.64532329 8.76666667,9.64532329 C9.19230769,9.64532329 10.1487179,10.0621469 10.3615385,9.85373509 C10.574359,9.75078468 12.0641026,13.6051475 12.0641026,10.4789705 C12.0641026,10.0621469 11.8512821,9.43691149 12.0641026,9.12554928 C12.5948718,8.29190207 13.1282051,7.35530446 13.5538462,6.41619586 C13.1282051,6.31324545 12.5974359,6.31324545 12.1717949,6.41619586 C11.9589744,6.51914626 12.2769231,6.83301946 11.9589744,6.83301946 C10.8948718,7.04143126 9.93846154,6.52165725 10.2564103,5.99937225 C10.574359,5.47959824 11.8512821,5.79096045 11.9589744,4.74890144 C12.0641026,4.12366604 12.0641026,3.49843063 12.0641026,2.97865662 C13.4461538,3.18706842 13.3410256,1.4168236 11.5333333,1 L11.0025641,1 C6.10769231,1 1.95897436,4.33458883 1,9.02259887 C1.42564103,9.43942247 2.16923077,9.43942247 2.48974359,8.91964846 C2.38461538,8.81669805 2.38461538,8.81669805 2.48974359,8.71123666 C2.91538462,9.02259887 3.55384615,9.02259887 3.55384615,9.54488387 C3.55384615,11.3151287 3.65897436,13.1908349 5.25641026,13.1908349 C5.89487179,13.3992467 6.32051282,13.9190207 6.53333333,14.5442561 C6.63846154,14.9610797 7.27692308,14.5442561 7.81025641,14.5442561 C8.12820513,14.5442561 7.81025641,15.0640301 7.81025641,16.1060891 C7.81025641,17.1481481 10.2564103,18.918393 10.2564103,18.918393 C10.2564103,19.5436284 10.2564103,20.0634024 10.3615385,20.6886378 C10.0435897,20.6886378 9.61794872,20.6886378 9.2974359,20.7915882 C9.82820513,21 10.2538462,21 10.7846154,21 Z M20.3615385,7.6616447 C20.3615385,7.6616447 20.2564103,7.6616447 20.2564103,7.55869429 C19.6179487,5.89139987 18.0230769,7.14187068 18.5538462,8.4952919 C15.574359,10.6823603 16.425641,12.2467043 17.3846154,13.0803515 C17.9153846,13.6001255 18.3410256,14.1224105 18.6615385,14.747646 C18.3435897,15.5812932 19.6179487,15.3728814 20.4692308,14.1224105 C20.8948718,13.0803515 21,11.9353421 21,10.7878217 L21,9.85122411 C21,9.6428123 21,9.4344005 20.8948718,9.33145009 C20.7871795,8.91211551 20.574359,8.2868801 20.3615385,7.6616447 Z" id="形状"></path>
                <path d="M11,22 C4.92311223,22 0,17.0774527 0,11.0012622 C0,4.92507172 4.92311223,0 11,0 C17.0768878,0 22,4.92254733 22,10.9987378 C22,17.0749283 17.0768878,22 11,22 Z M11,1.04761905 C5.5517558,1.04761905 1.04773927,5.55111876 1.04773927,10.9987378 C1.04773927,16.4463569 5.5517558,20.952381 11,20.952381 C16.4482442,20.952381 20.9522607,16.4488812 20.9522607,11.0012622 C20.9522607,5.55364314 16.4482442,1.04761905 11,1.04761905 Z" id="形状" stroke="#EFB336" stroke-width="0.4"></path>
            </g>
        </g>
    </g>
</svg>