<?xml version="1.0" encoding="UTF-8"?>
<svg width="16px" height="20px" viewBox="0 0 16 20" version="1.1" xmlns="http://www.w3.org/2000/svg" xmlns:xlink="http://www.w3.org/1999/xlink">
    <title>Platform-block-1-icon3</title>
    <g id="页面-1" stroke="none" stroke-width="1" fill="none" fill-rule="evenodd">
        <g id="SEAGM-COM" transform="translate(-364.000000, -585.000000)" fill="#FCAD00" fill-rule="nonzero">
            <g id="编组-4" transform="translate(364.000000, 585.000000)">
                <path d="M0,3.19999016 C0,1.43268074 3.58172869,-2.84217094e-14 8,-2.84217094e-14 C12.4182713,-2.84217094e-14 16,1.43268074 16,3.19999016 C16,4.96729959 12.4182713,6.4 8,6.4 C3.58172869,6.4 0,4.96727991 0,3.19999016 Z M15.7431713,5.39845752 C15.8202125,5.27368284 16,5.34299328 16,5.48163402 L16,7.43641088 C16,9.22483473 12.4173329,10.6666667 8,10.6666667 C3.5826671,10.6666667 0,9.22483473 0,7.43641088 L0,5.48165389 C0,5.34299328 0.179769079,5.27368284 0.256828741,5.39845752 C1.15569253,6.78482521 4.27607526,7.81073492 8,7.81073492 C11.7239063,7.81073492 14.8442891,6.78482521 15.7431713,5.39845752 L15.7431713,5.39845752 Z M15.7431713,9.66512443 C15.8202125,9.54034929 16,9.60965998 16,9.74830124 L16,11.7030854 C16,13.4915159 12.4173329,14.9333333 8,14.9333333 C3.5826671,14.9333333 0,13.491496 0,11.7030854 L0,9.74830124 C0,9.60965998 0.179769079,9.54034929 0.256828741,9.66512443 C1.15569253,11.0514973 4.27607526,12.0773909 8,12.0773909 C11.7239063,12.0773909 14.8442891,11.0514973 15.7431713,9.66512443 Z M15.7431713,13.9353469 C15.8202125,13.8106763 16,13.8660634 16,14.0184673 L16,15.9719445 C16,17.7591413 12.4173145,19.2 8,19.2 C3.5826671,19.2 0,17.7591413 0,15.9719445 L0,14.0184673 C0,13.87994 0.179769079,13.8106565 0.256828741,13.9353469 C1.15569253,15.3207788 4.27607526,16.3460159 8,16.3460159 C11.7239063,16.3460159 14.8442891,15.3207788 15.7431713,13.9353469 L15.7431713,13.9353469 Z" id="Platform-block-1-icon3"></path>
            </g>
        </g>
    </g>
</svg>