<?xml version="1.0" encoding="UTF-8"?>
<svg width="20px" height="20px" viewBox="0 0 20 20" version="1.1" xmlns="http://www.w3.org/2000/svg" xmlns:xlink="http://www.w3.org/1999/xlink">
    <title>Platform-block-2-icon4</title>
    <g id="页面-1" stroke="none" stroke-width="1" fill="none" fill-rule="evenodd">
        <g id="SEAGM-COM" transform="translate(-1293.000000, -1285.000000)" fill="#FCAD00" fill-rule="nonzero">
            <g id="Platform-block-2-icon4" transform="translate(1293.000000, 1285.000000)">
                <path d="M20.0000014,3.88875 L1.36668628e-06,3.88875 L1.36668628e-06,0.9725 C1.36668628e-06,0.435 0.432501337,0 0.965001301,0 L19.0350001,0 C19.2913778,0.000310926286 19.5370368,0.102893835 19.7175,0.285 C19.8986349,0.467952099 20.0000014,0.715048466 20.0000014,0.9725 L20.0000014,3.8875 L20.0000014,3.88875 Z M20.0000007,6.46875 L20.0000007,19.0275 C20.0000007,19.565 19.5675,20 19.0350001,20 L0.965001301,20 C0.708623606,19.9996891 0.462964552,19.8971062 0.282501347,19.715 C0.101250983,19.5321244 -0.000303600448,19.2849783 6.8180902e-07,19.0275 L6.8180902e-07,6.46875 L20.0000007,6.46875 Z M8.93750076,10.1375 L3.9225011,15.1375 L16.4225011,15.1375 L16.4225011,12.915 L8.93750076,12.915 L8.93750076,10.13875 L8.93750076,10.1375 Z" id="形状"></path>
            </g>
        </g>
    </g>
</svg>