<?xml version="1.0" encoding="UTF-8"?>
<svg width="17px" height="15px" viewBox="0 0 17 15" version="1.1" xmlns="http://www.w3.org/2000/svg" xmlns:xlink="http://www.w3.org/1999/xlink">
    <title>slider</title>
    <g id="页面-1" stroke="none" stroke-width="1" fill="none" fill-rule="evenodd">
        <g id="CONTACT-US" transform="translate(-1109.000000, -696.000000)" fill="#ACACB6" fill-rule="nonzero">
            <g id="编组-9" transform="translate(994.000000, 176.000000)">
                <g id="编组-3" transform="translate(90.000000, 504.000000)">
                    <g id="slider" transform="translate(25.000000, 16.000000)">
                        <g id="返-回" transform="translate(8.000000, 0.000000)">
                            <path d="M0.613360324,0 C0.769519954,0 0.927414691,0.0535714286 1.04713707,0.160714286 L8.82041643,7.11160714 C9.05986119,7.32589286 9.05986119,7.67410714 8.82041643,7.88839286 L1.04713707,14.8392857 C0.807692308,15.0535714 0.41902834,15.0535714 0.179583574,14.8392857 C-0.0598611914,14.625 -0.0598611914,14.2767857 0.179583574,14.0625 L7.51908618,7.5 L0.179583574,0.9375 C-0.0598611914,0.723214286 -0.0598611914,0.375 0.179583574,0.160714286 C0.299305957,0.0535714286 0.457200694,0 0.613360324,0 Z" id="路径"></path>
                        </g>
                        <g id="返-回备份">
                            <path d="M0.613360324,0 C0.769519954,0 0.927414691,0.0535714286 1.04713707,0.160714286 L8.82041643,7.11160714 C9.05986119,7.32589286 9.05986119,7.67410714 8.82041643,7.88839286 L1.04713707,14.8392857 C0.807692308,15.0535714 0.41902834,15.0535714 0.179583574,14.8392857 C-0.0598611914,14.625 -0.0598611914,14.2767857 0.179583574,14.0625 L7.51908618,7.5 L0.179583574,0.9375 C-0.0598611914,0.723214286 -0.0598611914,0.375 0.179583574,0.160714286 C0.299305957,0.0535714286 0.457200694,0 0.613360324,0 Z" id="路径"></path>
                        </g>
                    </g>
                </g>
            </g>
        </g>
    </g>
</svg>