<?xml version="1.0" encoding="UTF-8"?>
<svg width="20px" height="20px" viewBox="0 0 20 20" version="1.1" xmlns="http://www.w3.org/2000/svg" xmlns:xlink="http://www.w3.org/1999/xlink">
    <title>gou</title>
    <g id="页面-1" stroke="none" stroke-width="1" fill="none" fill-rule="evenodd">
        <g id="CONTACT-US" transform="translate(-1106.000000, -695.000000)" fill="#7AC33C" fill-rule="nonzero">
            <g id="编组-9" transform="translate(994.000000, 176.000000)">
                <g id="编组-3" transform="translate(90.000000, 504.000000)">
                    <g id="gou" transform="translate(22.000000, 15.000000)">
                        <path d="M10,0 C4.49611315,0 0,4.49611315 0,10 C0,15.5038869 4.49611315,20 10,20 C15.5038869,20 20,15.5038869 20,10 C20,4.49611315 15.5038869,0 10,0 Z M16.0077637,7.82945985 L9.37984854,14.457375 C9.1472792,14.6899243 8.79845529,14.7286825 8.52712774,14.6124078 C8.37209489,14.5736496 8.17828377,14.4961332 8.06200913,14.3798586 L4.68992427,11.0077536 C4.37983851,10.6976679 4.37983851,10.2325493 4.68992427,9.92248357 C5.00001003,9.61241787 5.46510858,9.61239781 5.77519434,9.92248357 L8.72093886,12.8682281 L14.9224936,6.74418978 C15.2325593,6.43410402 15.6976779,6.43410402 16.0077637,6.74418978 C16.3178494,7.05427554 16.3178294,7.51937409 16.0077637,7.82945985 Z" id="形状"></path>
                    </g>
                </g>
            </g>
        </g>
    </g>
</svg>