<?xml version="1.0" encoding="UTF-8"?>
<svg width="1920px" height="360px" viewBox="0 0 1920 360" version="1.1" xmlns="http://www.w3.org/2000/svg" xmlns:xlink="http://www.w3.org/1999/xlink">
    <title>路径 4</title>
    <g id="页面-1" stroke="none" stroke-width="1" fill="none" fill-rule="evenodd" opacity="0.120489211">
        <g id="SEAGM1" transform="translate(0.000000, -2644.000000)" stroke="#111111" stroke-width="3">
            <g id="路径-4" transform="translate(-19.846505, 2644.000000)">
                <path d="M1939.84651,255.752655 C1939.84651,255.752655 1896.28759,345.224217 1872.56705,359.752655 C1856.75335,369.438281 1771.52112,369.438281 1616.87034,359.752655 C1639.36757,314.587819 1660.68506,292.005401 1680.8228,292.005401 C1700.96055,292.005401 1733.47242,244.382574 1778.35842,149.13692 C1831.57378,85.1588475 1863.95583,38.0493894 1875.50457,7.80854513 C1887.05331,-22.4322991 1862.79356,-24.4509291 1802.7253,1.75265512 C1744.9145,79.6096092 1713.82968,124.1694 1709.47084,135.432026 C1705.11199,146.694653 1695.56265,161.468196 1680.8228,179.752655 C1666.68531,200.492438 1648.46757,193.115513 1626.16956,157.621879 C1592.72256,104.381429 1536.94401,185.066575 1533.17178,188.454809 C1529.39955,191.843043 1498.84794,228.462665 1490.12067,228.462665 C1481.3934,228.462665 1460.04861,303.919721 1538.45948,359.752655 C1590.73339,396.974611 1566.8908,397.641278 1466.93172,361.752655 C1443.87797,345.302979 1430.89125,307.168765 1427.97157,247.35001 C1425.0519,187.531256 1451.48162,143.761506 1507.26075,116.040759 C1526.75662,91.6736167 1526.75662,64.3112601 1507.26075,33.953689 C1487.76488,3.59611779 1466.50008,11.5920921 1443.46638,57.9416118 L1388.84651,143.804687 C1368.40309,162.11748 1345.22858,174.766803 1319.32298,181.752655 C1280.46458,192.231433 1250.34209,184.977711 1242.34843,284.869582 C1237.01932,351.464163 1213.47613,378.218381 1171.71887,365.132238 L1287.84548,373.82653 C1275.86308,308.958476 1284.60208,266.799636 1314.06247,247.35001 C1358.25306,218.175572 1375.44591,235.258932 1388.84651,304.542731 C1397.78024,350.731931 1399.61338,377.8276 1394.34594,385.829741 L1202.84651,400.008837 L895.245629,373.82653 C890.06107,309.625203 886.13173,273.275187 883.457608,264.776483 C879.446426,252.028427 833.156637,194.484236 822.846505,318.011549 C815.973084,400.36309 800.639751,429.151278 776.846505,404.376112 L759.461313,365.132238 C782.746769,204.724869 818.463948,132.726429 866.61285,149.13692 C914.761751,165.54741 945.87922,219.954746 959.965256,312.358926 C985.236993,374.996263 997.872861,363.45193 997.872861,277.725926 C997.872861,191.999922 962.013148,132.577041 890.293723,99.457285 C829.055603,51.9798806 798.436543,21.4303006 798.436543,7.80854513 C798.436543,-5.81321035 823.660462,-10.011578 874.108298,-4.78655779 L980.846505,113.752655 L1078.75032,218.678232 C1094.53573,236.55935 1102.42844,253.250825 1102.42844,268.752655 C1102.42844,292.005401 1136.9089,360.018504 1171.71887,284.869582 C1194.92551,234.770301 1181.91919,205.89317 1132.6999,198.238191 C1157.98956,120.692788 1194.53907,86.3239273 1242.34843,95.1316083 C1314.06247,108.34313 1341.37899,142.388523 1394.34594,46.2994634 C1429.65723,-17.7599096 1434.49075,-40.942179 1408.84651,-23.2473449 L1377.97791,7.80854513 L1259.52113,-23.2473449 L1090.84651,46.2994634 C1056.45315,87.8826406 999.119813,70.8539669 918.846505,-4.78655779 C838.573197,-80.4270825 677.620941,-97.6348113 435.989736,-56.4097442 C405.227582,-34.301478 389.846505,-23.2473449 389.846505,-23.2473449 C389.846505,-23.2473449 399.846505,55.5832401 428.846505,66.7526551 C457.846505,77.9220701 543.846505,83.6339674 666.846505,33.953689 C748.846505,0.833503358 748.846505,42.0562334 666.846505,157.621879 C592.179839,211.647839 573.513172,279.024765 610.846505,359.752655 C648.179839,440.480546 666.846505,445.171837 666.846505,373.82653 C614.672155,310.18777 620.045234,256.829812 682.965743,213.752655 C745.886251,170.675498 757.616877,224.033457 718.157621,373.82653 L707.501234,415.104952 L588.236353,477.519542 L570.846505,373.82653 C545.766318,304.424661 542.394579,245.895215 560.731289,198.238191 C579.067998,150.581167 549.289506,129.645779 471.395813,135.432026 C396.926053,132.312446 359.691173,87.0859885 359.691173,-0.247344879 C359.691173,-87.5806782 343.141076,-95.2473449 310.040881,-23.2473449 C318.253188,81.4193218 355.273869,147.085988 421.102924,173.752655 C486.931978,200.419322 519.846505,277.293807 519.846505,404.376112 L457.846505,385.829741 C465.716922,289.594974 443.050255,223.80333 389.846505,188.454809 C310.040881,135.432026 265.468072,71.4712517 287.754476,-29.8880466 C302.612079,-97.4609121 287.937843,-106.301478 243.731769,-56.4097442 C240.947185,87.2304197 249.325276,163.951219 268.866043,173.752655 C298.177192,188.454809 547.358472,337.270442 310.040881,318.011549 C72.7232895,298.752655 373.808817,67.3673524 103.825919,198.238191 C-76.1626796,285.485417 -108.336303,257.323571 7.30504932,113.752655 C-13.9503034,0.311055577 -20.3405656,-56.4097442 -11.8657373,-56.4097442 C0.846505257,-56.4097442 210.725691,-23.2473449 202.498513,-23.2473449 C194.271334,-23.2473449 79.2174057,33.3872275 103.825919,73.5699413 C128.434433,113.752655 180.504197,132.373702 191.501355,113.752655 C198.832793,101.338624 207.968694,55.6719573 218.909056,-23.2473449 L182.31515,-69.1594369 L-51.7261741,-90 L-85,298.752655 L7.30504932,415.104952 L103.825919,385.829741"></path>
            </g>
        </g>
    </g>
</svg>