<?xml version="1.0" encoding="UTF-8"?>
<svg width="487px" height="254px" viewBox="0 0 487 254" version="1.1" xmlns="http://www.w3.org/2000/svg" xmlns:xlink="http://www.w3.org/1999/xlink">
    <title>路径 3</title>
    <g id="页面-1" stroke="none" stroke-width="1" fill="none" fill-rule="evenodd" opacity="0.604747954">
        <g id="SEAGM1" transform="translate(-674.000000, -717.000000)" stroke="#1F1F1F" stroke-width="4">
            <g id="路径-3" transform="translate(361.000000, 717.000000)">
                <path d="M640.424956,-12.1283909 C627.118961,4.21888406 627.118961,19.0875972 640.424956,32.4777484 C653.730951,45.8678996 676.692502,63.9991865 709.309609,86.8716091 C729.387787,95.6386697 744.61603,86.2861167 754.99434,58.8139501 C765.372649,31.3417835 770.422754,7.69433649 770.144654,-12.1283909 L802.705468,-12.1283909 L802.705468,72.6482021 C787.700153,84.1304734 780.197495,95.8716091 780.197495,107.871609 C780.197495,125.871609 755.149295,185.029282 674.177382,100.700935 C620.196106,44.4820374 583.173718,44.4820374 563.110219,100.700935 C540.88059,123.116904 513.619192,116.26723 481.326025,80.1519116 C449.032858,44.0365933 425.385453,44.2407174 410.38381,80.764284 C391.629617,129.385123 375.877329,149.058221 363.126947,139.783576 C350.376565,130.508931 350.376565,94.7403222 363.126947,32.4777484 C401.33153,23.1595196 413.575449,8.29080646 399.858704,-12.1283909 C386.141959,-32.5475883 399.757547,-32.5475883 440.705468,-12.1283909 C479.695224,25.3638358 502.495209,51.2368925 509.105422,65.4907791 C519.020741,86.8716091 583.523034,65.3110041 563.110219,26.5913066 C549.501677,0.778174922 538.700093,-12.1283909 530.705468,-12.1283909 L358.86445,-50 L318.770403,116.112541 L316,252.871609 L369.927936,226.014448 C402.458442,240.647057 426.050952,246.156849 440.705468,242.543822 C455.359984,238.930796 447.078618,255.314703 415.861371,291.695543 L548.936309,299.873709 C565.591723,246.419284 585.003685,220.745801 607.172193,222.85326 C640.424956,226.014448 661.080726,263.199396 674.177382,252.871609 C682.908486,245.986418 701.146928,258.927729 728.892708,291.695543 L747.792783,281.871609 C718.592653,215.462464 736.896881,184.93629 802.705468,190.293088 C868.514055,195.649886 873.904827,207.557006 818.877784,226.014448 C769.7,214.560348 753.455624,233.179402 770.144654,281.871609 C786.833684,330.563816 795.551036,330.563816 796.29671,281.871609 C788.314335,253.204942 795.84136,243.538276 818.877784,252.871609"></path>
            </g>
        </g>
    </g>
</svg>