<?xml version="1.0" encoding="UTF-8"?>
<svg width="46px" height="32px" viewBox="0 0 46 32" version="1.1" xmlns="http://www.w3.org/2000/svg" xmlns:xlink="http://www.w3.org/1999/xlink">
    <title>home-block-6-icon2</title>
    <g id="页面-1" stroke="none" stroke-width="1" fill="none" fill-rule="evenodd">
        <g id="SEAGM3" transform="translate(-1409.000000, -3900.000000)" fill="#EAEAEA" fill-rule="nonzero">
            <g id="编组-4备份-2" transform="translate(1310.000000, 3893.000000)">
                <g id="home-block-6-icon2" transform="translate(99.000000, 7.000000)">
                    <path d="M0,11.0257987 L0.147731835,10.6117942 C0.529372407,9.49154655 1.5204068,8.74268537 2.72072795,8.65744914 C3.82256122,8.57830121 4.92439449,9.21757295 5.43530041,10.2160545 C5.96467282,11.232801 5.81694099,12.4443731 5.04750435,13.3332653 C4.95517195,13.4367664 4.86899505,13.5280909 4.77050716,13.6437687 C6.90646327,14.9344888 9.0239529,16.2191205 11.1414425,17.5037523 C11.9416566,17.9969048 12.7480262,18.483969 13.5482403,18.9527683 C14.0037468,19.2206536 14.3607654,19.1354173 14.6131406,18.6970596 C17.0384049,14.3134819 19.4759802,9.93599262 21.919711,5.50979687 C20.8548107,4.98011458 20.1777064,4.16428208 20.109996,2.96488653 C20.0669075,2.11861252 20.3685267,1.40019285 20.971765,0.803539229 C22.1782417,-0.3532382 24.1479995,-0.249737061 25.2005888,1.04098302 C26.4132209,2.51435216 25.9761809,4.2312534 24.0556671,5.52197348 C24.6773719,6.6543977 25.3175432,7.79899852 25.9577144,8.93751105 C27.724341,12.1156048 29.4786565,15.2876103 31.245283,18.4657041 C31.6515456,19.1963004 31.9100763,19.26936 32.6364245,18.8431788 C35.3633079,17.1932489 38.0901914,15.5372307 40.8170748,13.8812125 C40.9463402,13.8020646 41.0632945,13.7229166 41.2110264,13.6376804 C40.644721,13.0775566 40.2877024,12.4443731 40.2446139,11.6711588 C40.1645925,10.2221428 41.1802489,8.94359935 42.5960123,8.70615556 C44.0733307,8.45044687 45.4398501,9.28454427 45.8768901,10.6970304 C45.9076676,10.8066198 45.9569115,10.9222976 46,11.0257987 L46,12.0121037 C45.538338,13.4854728 44.5842366,14.3378351 42.9407199,14.3500118 C42.8853205,14.5143959 42.8176101,14.6787801 42.7745216,14.8553408 C41.1802489,20.2739299 39.5798207,25.6986072 37.985548,31.1111079 C37.7824167,31.8173509 37.5300415,32 36.8098488,32 L9.23323966,32 C8.45764753,32 8.22373879,31.8234392 8.00829653,31.1111079 C6.70948749,26.7153536 5.42298943,22.3135111 4.11802489,17.9177569 C3.77331728,16.7244496 3.41014318,15.543319 3.05312458,14.3439235 C1.82818145,14.3439235 0.91101298,13.8690359 0.338552121,12.8218479 C0.203131273,12.5661392 0.110798876,12.279989 0.00615549311,12.0060154 C0,11.6650705 0,11.3423904 0,11.0257987" id="形状"></path>
                </g>
            </g>
        </g>
    </g>
</svg>