<?xml version="1.0" encoding="UTF-8"?>
<svg width="22px" height="25px" viewBox="0 0 22 25" version="1.1" xmlns="http://www.w3.org/2000/svg" xmlns:xlink="http://www.w3.org/1999/xlink">
    <title>Platform-block-2-icon2</title>
    <g id="页面-1" stroke="none" stroke-width="1" fill="none" fill-rule="evenodd">
        <g id="SEAGM-COM" transform="translate(-1292.000000, -1235.000000)" fill="#FCAD00" fill-rule="nonzero">
            <g id="Platform-block-2-icon2" transform="translate(1292.000000, 1235.000000)">
                <path d="M14.3744345,6.12114044 C14.8324968,6.21925578 15.3072347,6.05089374 15.5963038,5.68781416 C16.0600414,5.11634397 16.4885689,4.51806014 16.8795842,3.89617665 C17.2034789,3.34209474 17.280753,2.68112477 17.0931798,2.06916983 C16.9056066,1.45721489 16.4697936,0.948456619 15.888536,0.662895921 C14.9616182,0.111431393 13.8686443,-0.105829579 12.7968043,0.0483225874 C11.6956396,0.21706985 10.7935316,1.47954932 9.54625083,1.61079717 C8.29897005,1.74412834 7.10039462,0.756644385 6.28299163,0.819143371 C4.97429973,0.902475342 4.33901242,2.58578131 5.06112235,3.89617665 C5.45923573,4.52116648 5.89546637,5.11699012 6.3676966,5.68781416 C6.65781115,6.05239155 7.132159,6.21905552 7.58956588,6.12114044 C9.81193186,5.64034423 12.1139513,5.64034423 14.3363172,6.12114044 L14.3744345,6.12114044 L14.3744345,6.12114044 Z M11.0010588,8.16485721 C3.77784195,8.1669405 0,13.1460262 0,18.0501131 C0,21.0313146 1.13716431,25 11.0010588,25 C20.8649533,25 22,21.0313146 22,18.0501131 C22,13.1439429 18.2242757,8.16485721 11.0010588,8.16485721 Z M11.2212917,15.7064012 C13.9466744,16.3418075 14.3617303,17.8459497 14.3617303,18.6751029 C14.3160406,20.0336668 13.2857992,21.1640209 11.9179902,21.3563093 L11.9179902,21.681304 C11.9179902,22.1795027 11.507466,22.5833726 11.0010588,22.5833726 C10.4946516,22.5833726 10.0841274,22.1795027 10.0841274,21.681304 L10.0841274,21.3917254 C8.67118863,21.1576392 7.63699785,19.9534633 7.63827009,18.543855 L9.47213398,18.543855 C9.47213398,19.2646766 10.0968332,19.7459188 11.0984695,19.7459188 C12.1001059,19.7459188 12.527866,19.3355088 12.527866,18.7709347 C12.527866,18.2063605 11.574935,17.7251183 10.7808259,17.5688709 C8.05544326,16.9313812 7.63827009,15.4293223 7.63827009,14.5980859 C7.68412966,13.2388416 8.71548153,12.1082489 10.0841274,11.9168795 L10.0841274,11.5918848 C10.0841274,11.093686 10.4946516,10.6898161 11.0010588,10.6898161 C11.507466,10.6898161 11.9179902,11.093686 11.9179902,11.5918848 L11.9179902,11.9543789 C13.3300872,12.1893716 14.363176,13.3933069 14.3617303,14.8022492 L12.527866,14.8022492 C12.527866,14.0814276 11.9052844,13.6001855 10.9036481,13.6001855 C9.89989412,13.6001855 9.47213398,14.0105954 9.47213398,14.5751696 C9.47213398,15.1397437 10.425065,15.5126543 11.2212917,15.7043179 L11.2212917,15.7064012 Z" id="形状"></path>
            </g>
        </g>
    </g>
</svg>