<?xml version="1.0" encoding="UTF-8"?>
<svg width="24px" height="17px" viewBox="0 0 24 17" version="1.1" xmlns="http://www.w3.org/2000/svg" xmlns:xlink="http://www.w3.org/1999/xlink">
    <title>Platform-block-1-icon2</title>
    <g id="页面-1" stroke="none" stroke-width="1" fill="none" fill-rule="evenodd">
        <g id="SEAGM-COM" transform="translate(-621.000000, -541.000000)" fill="#FCAD00" fill-rule="nonzero">
            <g id="编组-5" transform="translate(620.000000, 540.000000)">
                <path d="M11.0010005,2.22922078 C9.56028014,0.8696462 6.22261131,0.3134566 4.33766883,2.27865985 C2.48874437,4.19442403 1,8.80461783 1,13.1552565 C1,18.4081583 5.53826913,19.1373846 7.99949975,16.5541929 C9.42821411,15.0586609 9.56028014,14.8238253 10.4967484,13.6372875 L15.5032516,13.6372875 C16.4397199,14.8238253 16.5717859,15.0586609 18.0005003,16.5541929 C20.4737369,19.1373846 25,18.4081583 25,13.1552565 C25,8.80461783 23.5112556,4.19442403 21.6623312,2.27865985 C19.7773887,0.3134566 16.4397199,0.8696462 14.9989995,2.22922078 C14.4467234,2.74833107 12.993997,2.95844714 12.993997,2.95844714 C12.993997,2.95844714 11.5652826,2.74833107 11.0010005,2.22922078 Z M9.008004,5.43040092 L9.008004,6.83941457 L10.4607304,6.83941457 C11.0370185,6.83941457 11.5172586,7.27200649 11.5172586,7.81583632 C11.5172586,8.34730638 11.0490245,8.79225806 10.4607304,8.79225806 L9.008004,8.79225806 L9.008004,10.2012717 C9.008004,10.7698211 8.56378189,11.2147728 8.01150575,11.2147728 C7.45922961,11.2147728 7.0150075,10.7574613 7.0150075,10.2012717 L7.0150075,8.77989829 L5.55027514,8.77989829 C4.97398699,8.77989829 4.49374687,8.34730638 4.49374687,7.80347655 C4.49374687,7.27200649 4.96198099,6.82705481 5.55027514,6.82705481 L7.0030015,6.82705481 L7.0030015,5.43040092 C7.0030015,4.86185155 7.44722361,4.41689987 7.99949975,4.41689987 C8.55177589,4.41689987 9.008004,4.87421132 9.008004,5.43040092 L9.008004,5.43040092 Z M18.0125063,6.11018821 C18.0125063,5.44276069 18.5767884,4.89893086 19.2611306,4.89893086 C19.9454727,4.89893086 20.5097549,5.44276069 20.5097549,6.11018821 C20.5097549,6.77761573 19.9454727,7.32144556 19.2611306,7.32144556 C18.5647824,7.32144556 18.0125063,6.77761573 18.0125063,6.11018821 Z M15.5032516,9.02709367 C15.5032516,8.35966615 16.0675338,7.81583632 16.7518759,7.81583632 C17.4362181,7.81583632 18.0005003,8.35966615 18.0005003,9.02709367 C18.0005003,9.69452119 17.4362181,10.238351 16.7518759,10.238351 C16.0675338,10.238351 15.5032516,9.69452119 15.5032516,9.02709367 Z" id="Platform-block-1-icon2"></path>
            </g>
        </g>
    </g>
</svg>