<?xml version="1.0" encoding="UTF-8"?>
<svg width="26px" height="22px" viewBox="0 0 26 22" version="1.1" xmlns="http://www.w3.org/2000/svg" xmlns:xlink="http://www.w3.org/1999/xlink">
    <title>Platform-block-2-icon1</title>
    <g id="页面-1" stroke="none" stroke-width="1" fill="none" fill-rule="evenodd">
        <g id="SEAGM-COM" transform="translate(-1026.000000, -1238.000000)" fill="#FCAD00" fill-rule="nonzero">
            <g id="Platform-block-2-icon1" transform="translate(1026.000000, 1238.000000)">
                <path d="M20.3262876,11.9449814 L14.9615258,6.49591078 C14.9615258,6.49591078 14.7616923,6.3866171 14.623346,6.49591078 C13.9008709,7.24535316 13.3167422,7.83866171 12.840216,8.26022305 C12.3636899,8.68178439 11.7027021,8.9472119 11.1493169,9.00966543 C10.5959318,9.05650558 9.84271307,9.16579926 9.05875076,8.32267658 C8.99726352,8.26022305 8.9665199,8.16654275 8.9665199,8.07286245 C8.9665199,7.97918216 8.99726352,7.90111524 9.05875076,7.83866171 L12.6711261,4.18513011 C12.3636899,3.88847584 12.1638564,3.68550186 12.0716255,3.60743494 C11.2108042,2.84237918 10.1808929,2.34275093 9.36618696,1.92118959 L9.21246886,1.84312268 C9.08949438,1.76505576 8.95114809,1.70260223 8.8128018,1.6401487 L8.6744555,1.57769517 L8.65908369,1.56208178 C8.2133012,1.32788104 7.58305699,1 6.98355639,1 C6.55314571,1 6.18422227,1.17174721 5.84604245,1.49962825 L0.850204169,6.60520446 C-0.0721044367,7.54200743 -0.0259890065,8.32267658 0.0201264238,8.77546468 C0.0354982339,8.8535316 0.0354982339,8.91598513 0.0354982339,8.9472119 C0.0662418541,9.32193309 0.419793486,9.80594796 1.00392227,10.5085502 C1.11152494,10.6334572 1.23449942,10.7739777 1.32673028,10.8988848 C1.6649101,11.3204461 1.91085906,11.7420074 2.15680803,12.1479554 L2.2644107,12.335316 C2.67944957,13.0223048 3.15597568,13.8185874 4.12439972,14.7866171 L10.3807264,21.1724907 C10.8111371,21.6096654 11.3798941,21.9063197 11.9640229,21.9843866 C12.0408819,22 12.1484846,22 12.2407154,22 C12.7172416,22 13.1476522,21.8282528 13.4397166,21.5159851 L13.5780629,21.3754647 C14.1314481,20.8133829 13.3628576,19.9858736 13.3628576,19.9858736 L10.8111371,17.394052 C10.7496499,17.3315985 10.7035344,17.2379182 10.7035344,17.1442379 C10.7035344,17.0505576 10.7342781,16.9568773 10.8111371,16.8944238 C10.8726243,16.8319703 10.9648552,16.7851301 11.0570861,16.7851301 C11.1493169,16.7851301 11.2415478,16.8163569 11.303035,16.8944238 L13.8547555,19.4862454 C13.8547555,19.4862454 14.7770641,20.3137546 15.4995392,19.8453532 C15.6532573,19.7048327 15.8069754,19.5643123 15.9760653,19.4081784 C16.5601941,18.736803 15.8684626,17.8780669 15.8684626,17.8780669 L13.1015368,15.067658 C13.0400496,15.0052045 12.9939341,14.9115242 12.9939341,14.8178439 C12.9939341,14.7241636 13.0246778,14.6304833 13.1015368,14.5680297 C13.1630241,14.5055762 13.2552549,14.4587361 13.3474858,14.4587361 C13.4397166,14.4587361 13.5319475,14.4899628 13.5934347,14.5680297 L16.5140787,17.5189591 C16.5140787,17.5189591 17.2211819,18.2840149 17.8821697,17.9405204 L18.0666315,17.7843866 L18.6200166,17.2847584 C18.6200166,17.2847584 18.6507603,17.2379182 18.6815039,17.2066914 C19.234889,16.4572491 18.589273,15.6453532 18.589273,15.6453532 L15.5456546,12.5539033 C15.4841674,12.4914498 15.4380519,12.3977695 15.4380519,12.3040892 C15.4380519,12.2104089 15.4687956,12.1167286 15.5456546,12.0542751 C15.6071419,11.9918216 15.6993727,11.9449814 15.7916036,11.9449814 C15.8838344,11.9449814 15.9760653,11.9762082 16.0375525,12.0542751 L18.4662985,14.5211896 C18.4662985,14.5211896 19.4039789,15.4267658 20.4185184,14.7710037 C20.6644674,14.5211896 20.8643009,14.3182156 20.94116,13.9122677 C21.1256217,13.1628253 20.8643009,12.4914498 20.3262876,11.9449814 Z" id="路径"></path>
                <path d="M24.7746146,6.61847493 L18.7268166,1.04369067 C17.3559824,-0.219927096 15.8561284,-0.338855827 14.7272061,0.701770568 L12.3887242,2.85735381 L8.24396663,6.67793929 C7.9214174,6.96039503 7.9214174,7.43610995 8.22783917,7.73343178 C9.22774178,8.5510668 10.4534289,8.83352254 10.4534289,8.83352254 C10.1147522,8.74432599 9.75994801,8.5659329 9.40514385,8.2240128 C9.34063401,8.16454843 9.30837909,8.07535188 9.30837909,7.98615533 C9.30837909,7.89695879 9.34063401,7.82262833 9.40514385,7.76316396 L10.0502423,7.16852031 L13.533774,3.95744458 L15.9045108,1.77212915 C16.1948051,1.5045395 16.4044621,1.5045395 16.5496093,1.51940559 C16.7431388,1.54913778 17.0818155,1.66806651 17.5656394,2.11404925 L23.6134374,7.68883351 C24.1778986,8.2091467 24.6939773,8.95245127 24.0327514,9.56196102 L22.7909369,10.7066501 C22.6361101,10.8481737 22.5490197,11.0408388 22.5490197,11.2418293 C22.5490197,11.4428199 22.6361101,11.635485 22.7909369,11.7770086 C22.9522115,11.9256695 23.1618685,12 23.3715255,12 C23.5811825,12 23.7908395,11.9256695 23.9521141,11.7770086 L25.1939286,10.6323196 C26.4034883,9.51736274 26.2422136,7.97128924 24.7746146,6.61847493 Z" id="路径"></path>
            </g>
        </g>
    </g>
</svg>