<?xml version="1.0" encoding="UTF-8"?>
<svg width="19px" height="26px" viewBox="0 0 19 26" version="1.1" xmlns="http://www.w3.org/2000/svg" xmlns:xlink="http://www.w3.org/1999/xlink">
    <title>Platform-block-2-icon5</title>
    <g id="页面-1" stroke="none" stroke-width="1" fill="none" fill-rule="evenodd">
        <g id="SEAGM-COM" transform="translate(-1030.000000, -1330.000000)" fill="#FCAD00" fill-rule="nonzero">
            <g id="Platform-block-2-icon5" transform="translate(1030.000000, 1330.000000)">
                <path d="M10.1518252,0 L11.064143,0 C11.6531076,0.322887571 11.8683761,0.839672438 11.8627794,1.51836978 C11.8469448,3.63982095 11.8562271,5.7622379 11.8562271,7.88076328 L13.0937818,7.88076328 C13.0937818,6.41670519 13.0863287,4.99238667 13.0937818,3.56906235 C13.0993785,2.86124916 13.5065731,2.36579698 14.0852998,2.32506321 C14.7329344,2.27950047 15.2175272,2.77202687 15.2212402,3.5069959 C15.2286934,4.96136765 15.223124,6.41670519 15.223124,7.93214918 L19,7.93214918 L19,19.3799864 C18.2992377,19.3799864 17.6273599,19.3954959 16.9591951,19.3741916 C16.6153389,19.3625453 16.4820826,19.447876 16.4093801,19.8434538 C15.9052396,22.664935 14.3788403,24.6516011 11.7518827,25.5736785 C9.1277098,26.49283 6.74490513,25.9110813 4.70412748,23.9700064 C3.55789466,22.8811591 2.88230392,21.5024034 2.62231642,19.904526 C2.58595148,19.6863703 2.64934442,19.3722317 2.27286352,19.3819464 C1.51708971,19.4013191 0.756702038,19.4158628 0,19.4323665 L0,7.92246284 L2.53749219,7.92246284 L2.53749219,7.43087383 C2.53749219,6.39341251 2.52446961,5.35498541 2.54123243,4.31851829 C2.55054207,3.64660991 3.01834484,3.09102286 3.54951325,3.06486121 C4.07415672,3.04060274 4.5503682,3.5060017 4.64728678,4.17308112 C4.68455266,4.43001066 4.66964631,4.69762074 4.66964631,4.96037345 C4.67150278,5.9377283 4.66964631,6.91602055 4.66964631,7.88366066 L5.90528993,7.88366066 L5.90528993,7.27185873 C5.90528993,5.60129121 5.90157699,3.93069529 5.9071737,2.26009937 C5.9071737,1.43889064 6.3134673,0.940512666 6.96481475,0.933723704 C7.64046009,0.926906337 8.03277558,1.39815687 8.03463205,2.23294353 C8.03837229,3.41098464 8.03648852,4.58999155 8.03648852,5.76803266 L8.03648852,7.88948382 L9.28706579,7.88948382 C9.28706579,5.85529497 9.31038085,3.85019355 9.27587237,1.84801791 C9.26192156,1.04231869 9.44268153,0.403360914 10.1518525,0 L10.1518252,0 Z M17.7457098,9.29246966 L1.30466057,9.29246966 L1.30466057,18.0099796 L13.9324688,18.0099796 C13.9418057,17.7947212 13.9539274,17.6076129 13.9557839,17.4204761 C13.9576403,16.0669446 13.9539274,14.7124189 13.9576403,13.3579216 C13.9595241,12.4523479 14.4729742,11.8618503 15.2426988,11.8686392 C15.9872792,11.8754566 16.4914196,12.4630001 16.4951598,13.3404805 C16.5007292,14.7134131 16.4951598,16.0863173 16.4970163,17.4573183 C16.4970163,17.6415293 16.5221605,17.8267344 16.5352377,18.0041564 L17.7457098,18.0041564 L17.7457098,9.29246966 L17.7457098,9.29246966 Z" id="形状"></path>
                <path d="M9.99862156,14.6753074 C9.82996493,15.1849866 10.2589548,15.9133623 9.38539154,15.9961392 C9.08441447,16.0240123 8.81455373,15.903765 8.77910442,15.5439419 C8.75746488,15.2782287 8.77563297,15.0089931 8.77563297,14.675333 C8.3552837,14.675333 7.96782449,14.6770686 7.58292453,14.675333 C7.29750563,14.6735717 7.01380977,14.6160644 7.00342077,14.2658386 C6.99133405,13.8911856 7.29578257,13.8737777 7.57253553,13.8694385 C7.88478847,13.8641804 8.20132371,13.880746 8.5118536,13.8546086 C8.59833573,13.8476403 8.6727058,13.7247894 8.75140885,13.6550812 C8.67184428,13.6002029 8.59572581,13.5043573 8.51529971,13.4991247 C8.16934585,13.4790877 7.81386451,13.5296268 7.48346881,13.46339 C7.30270013,13.4259451 7.1608522,13.208142 7,13.0704868 C7.16343678,12.9397998 7.31220227,12.7368011 7.4964424,12.6923624 C7.7766668,12.6278867 8.08111532,12.6757968 8.48935254,12.6757968 C8.10100647,12.0676685 7.76972391,11.5431849 7.43502058,11.0195692 C7.23697067,10.7128887 7.05534046,10.401869 7.45060408,10.1143322 C7.76283169,9.8878251 8.10792402,10.0054434 8.39506598,10.4271131 C8.75660335,10.9594583 9.10947477,11.4952748 9.50648679,12.0885988 C9.90347348,11.4891744 10.2632625,10.9420248 10.6265229,10.3975043 C10.8868561,10.0097826 11.2311123,9.89216432 11.5338124,10.1047348 C11.9040157,10.3661088 11.7621425,10.6771795 11.5796761,10.9742626 C11.2483935,11.5074757 10.9128033,12.0371918 10.5106221,12.6749289 C10.9024396,12.6749289 11.2146672,12.6270189 11.5035576,12.6923624 C11.6877724,12.734172 11.8365125,12.9406676 12,13.0739581 C11.8365379,13.2090098 11.6860493,13.4364103 11.5052807,13.460812 C11.0909874,13.5209229 10.6602745,13.4729873 10.2381768,13.4965212 C10.1421925,13.5034894 10.0487675,13.6263403 9.95622935,13.6968908 C10.0487675,13.7517947 10.1387211,13.8511117 10.2347054,13.8554764 C10.6421064,13.8737777 11.0503436,13.8624447 11.4576939,13.8659416 C11.7284162,13.869413 11.991334,13.9338886 11.991334,14.2623417 C11.991334,14.5890591 11.723247,14.6622387 11.4594423,14.6674713 C10.9768097,14.6822757 10.4933409,14.6753074 9.99862156,14.6753074 Z" id="路径"></path>
            </g>
        </g>
    </g>
</svg>