<svg xmlns="http://www.w3.org/2000/svg" xmlns:xlink="http://www.w3.org/1999/xlink" viewBox="0 0 96 30" width="960" height="300">
<path fill="#000" d="M40.1 15.2V.9h-4.8v15l1.2 3.1h10.3l-1.7-3.8h-5zM26.9.9h-5.2l-6 16.1-6.2-7.5L16.8 1h-6.3L4.8 8.2V.9H0V19h4.8v-7.7L11 19h9.1l1.1-3.3h6.2l1.1 3.3h5.7L26.9.9zm-4.5 11.5l1.8-5.2 1.8 5.2h-3.6zM96 .9H79l3 3.8h6.2L79.3 19h15.8v-3.8h-7.7L96 .9zM52.6 15.3v-3.4h5.5V8.1h-5.5V4.8h7L58.1 1H47.8v14.8l1.3 3.3h12.4L59 15.3h-6.4zm9.4-.1c-.9-1.5-1.5-3.3-1.5-5.2 0-5.5 4.5-10 10-10 2.1 0 4 .6 5.5 1.7-1.3 1-2.5 1.8-3.8 2.4l-.2.1c-.5-.1-1-.2-1.5-.2-3.3 0-6 2.7-6 6 0 .8.2 1.5.4 2.2l-.5.4c-.2.2-1.4 1.3-2.4 2.6zm15.9-7.8c-.5.6-1 1.1-1.5 1.6.1.3.1.6.1 1 0 3.3-2.7 6-6 6-.7 0-1.4-.1-2-.3l-.5.5-.1.1-.1.1c-.3.3-.6.5-.9.7-1.3 1.1-1.5 1.3-1.5 1.5 1.5.9 3.2 1.4 5 1.4 5.5 0 10-4.5 10-10 0-1.7-.4-3.3-1.2-4.8-.3.8-.7 1.5-1.3 2.2z"/>
<path fill="#000" fill-opacity=".7" d="M4.1 28.3c0 .5-.2.9-.6 1.2-.3.4-.8.5-1.3.5s-.9-.1-1.3-.4c-.4-.3-.6-.7-.8-1.1l.7-.3c.1.2.1.3.2.5.1.1.2.3.3.4s.2.2.4.2c.1.1.3.1.4.1.3 0 .6-.1.8-.3.2-.2.3-.4.3-.7 0-.2-.1-.5-.3-.6-.2-.2-.5-.3-.9-.5-.5-.2-.7-.3-.9-.3-.6-.3-.9-.7-.9-1.4 0-.4.2-.8.5-1.1.5-.3 1-.5 1.5-.5.4 0 .8.1 1.1.3.3.2.5.5.6.8l-.7.3c-.1-.2-.2-.4-.4-.5-.2-.1-.4-.2-.7-.2-.3 0-.5.1-.7.2-.2.1-.3.3-.3.6 0 .2.1.4.2.5.2.1.5.3 1.1.5.6.2 1 .4 1.2.7.4.4.5.7.5 1.1zm6.3-3.4v5h-.8v-5H8v-.7h3.9v.7h-1.5zm9.1-.8v.7h-2.6v1.8h2.4v.7h-2.4v1.8h2.6v.7h-3.3v-5.7h3.3zm4.9 5.8h-.8l2.2-5.7h.8l2.2 5.7H28l-.6-1.6H25l-.6 1.6zm1.7-4.9l-.9 2.6h1.9l-1-2.6zm7.5 4.9h-.7v-5.7h.7l2 3.5 2-3.5h.7v5.7h-.7v-4.4l-1.8 3.2h-.4l-1.8-3.1v4.3zm15.3 0h-.7v-5.7h.7l2 3.5 2-3.5h.7v5.7H53v-4.4l-1.8 3.1h-.4L49 25.5v1l-.1 3.4zm9.8 0h-.8l2.2-5.7h.8l2.2 5.7h-.8l-.5-1.6h-2.4c-.2 0-.7 1.6-.7 1.6zm1.7-4.9l-.9 2.6h1.9l-1-2.6zm7.5 4.9h-.7v-5.7h2c.5 0 .9.2 1.3.5.3.3.5.7.5 1.2 0 .4-.1.8-.4 1.1-.3.3-.6.5-1 .6l1.6 2.3h-.9l-1.5-2.3H68c-.1 0-.1 2.3-.1 2.3zm0-5.1v2h1.2c.3 0 .6-.1.8-.3.2-.2.3-.4.3-.7 0-.3-.1-.5-.3-.7s-.4-.3-.7-.3h-1.3zm10.6-.7h.9l-2.1 2.5 2.3 3.2h-.9l-1.9-2.7-.9 1v1.7h-.7v-5.7h.8V27c0 .1 2.5-2.9 2.5-2.9zm8.5 0v.7h-2.6v1.8h2.4v.7h-2.4v1.8H87v.7h-3.3v-5.7H87zm6.5.7v5h-.7v-5h-1.6v-.7h3.9v.7h-1.6z"/>
<path fill="orange" d="M67.8 11.4c2.5-2.8 4.5-5.1 5-6 2.3-1 4.5-2.7 6.4-4.7-.1 2.1-.9 4-2.4 5.8-1.6 1.9-4 4.1-6.8 6.5-.3-.2-.5-.2-.8-.2l-1.4-1.4zm-1.6-.4c0 .1 0 .1 0 0 .4.5.7.7 1 1l-1.8 1.7c-1.8 1.6-3.7 3.9-3.6 4.8 0 .3.2.5.6.6.7.3 1.3.3 1.7-.1-.2-1.4.7-1.9 2.8-3.7l1.7-1.9.1-.2 1 1.1s.1.1.2 0l.2-.2s.1-.1 0-.2c-1.1-1.3-2.3-2.4-3.6-3.5h-.2l-.1.6z"/>

</svg>
