<svg xmlns="http://www.w3.org/2000/svg" xmlns:xlink="http://www.w3.org/1999/xlink" viewBox="0 0 20 20" width="200" height="200">
<path fill="orange" d="M7.3 11.4c2.5-2.8 4.5-5.1 5-6 2.3-1 4.5-2.7 6.4-4.7-.1 2.1-.9 4-2.4 5.8-1.6 1.9-4 4.1-6.8 6.5-.3-.2-.5-.2-.8-.2l-1.4-1.4zM5.7 11c0 .1 0 .1 0 0 .4.5.7.7 1 1l-1.8 1.7c-1.8 1.6-3.7 3.9-3.6 4.8 0 .3.2.5.6.6.7.3 1.3.3 1.7-.1-.2-1.4.7-1.9 2.8-3.7l1.7-1.9.1-.2 1 1.1s.1.1.2 0l.2-.2s.1-.1 0-.2c-1.1-1.3-2.3-2.4-3.6-3.5h-.2l-.1.6z"/><path fill="#fff" d="M1.5 15.2C.5 13.7 0 11.9 0 10 0 4.5 4.5 0 10 0c2.1 0 4 .6 5.5 1.7-1.3 1-2.5 1.8-3.8 2.4l-.3.1C11 4.1 10.5 4 10 4c-3.3 0-6 2.7-6 6 0 .8.2 1.5.4 2.2l-.5.4c-.2.2-1.4 1.3-2.4 2.6zm15.9-7.8c-.5.6-1 1.1-1.5 1.6.1.3.1.7.1 1 0 3.3-2.7 6-6 6-.7 0-1.4-.1-2-.3l-.5.6-.1.1-.1.1c-.3.3-.6.5-.9.7-1.3 1.1-1.5 1.3-1.5 1.5 1.5.9 3.2 1.4 5 1.4 5.5 0 10-4.5 10-10 0-1.7-.4-3.3-1.2-4.8-.3.7-.7 1.4-1.3 2.1z"/>
</svg>
