<svg xmlns='http://www.w3.org/2000/svg' viewBox='0 0 460 215' width='460' height='215' style='background:#000'><path d="M214.24 117.56V89h-9.6v30l2.56 6.16h20.56l-3.36-7.6h-10.16zm-26.48-28.72H177.2l-12 32.16-12.24-15.04 14.64-17.04h-12.56L143.6 103.4V88.84H134V125h9.6v-15.36l12.56 15.44h18.16l2.16-6.64h12.56l2.16 6.64h11.36c-.16.08-14.8-36.24-14.8-36.24zm-8.8 22.96l3.6-10.56 3.76 10.56h-7.36zM326 88.84h-34l5.84 7.6h12.4L292.48 125h31.44v-7.6h-15.36L326 88.84zm-86.96 28.72v-6.64h11.04v-7.6h-11.04V96.6h14.16l-3.04-7.6H229.6v29.44l2.64 6.64h24.8l-4.96-7.6c.08.08-13.04.08-13.04.08zM275.2 87c-11.04 0-20.16 8.96-20.16 20s9.04 20 20.16 20 20.16-8.96 20.16-20-9.12-20-20.16-20zm0 31.84c-6.64 0-12-5.36-12-11.84s5.36-11.84 12-11.84 12 5.36 12 11.84-5.44 11.84-12 11.84zm-.16-11.84l5.76-4.16c-1.2-1.44-3.04-2.56-5.2-2.56-3.76 0-6.64 2.96-6.64 6.64s3.04 6.64 6.64 6.64c2.24 0 4.24-1.04 5.44-2.96l-6-3.6z" fill="#fff" fill-opacity=".1"/></svg>