<svg xmlns="http://www.w3.org/2000/svg" viewBox="0 0 100 100" width="100" height="100" style="background:#000"><path fill="rgba(255,255,255,.25)" d="M50 20c-16.68 0-30.24 13.44-30.24 30 0 16.56 13.56 30 30.24 30s30.24-13.44 30.24-30c0-16.56-13.56-30-30.24-30zm0 47.88c-9.96 0-18-7.98-18-17.88 0-9.84 8.04-17.88 18-17.88S68 40.1 68 50c0 9.84-8.04 17.88-18 17.88zm8.7-24.18a10.059 10.059 0 00-7.8-3.72c-5.58 0-10.08 4.5-10.08 10.02s4.5 10.02 10.08 10.02c3.42 0 6.48-1.74 8.28-4.32l-9-5.64 8.52-6.36z"/></svg>