<svg xmlns="http://www.w3.org/2000/svg" viewBox="0 0 400 400" style='background:#000'><path d="M192.1 205.3V191h-4.8v15l1.3 3.1h10.3l-1.7-3.8h-5.1zm-13.2-14.4h-5.3l-6 16.1-6.1-7.5 7.3-8.5h-6.3l-5.7 7.3V191H152v18h4.8v-7.7l6.3 7.7h9.1l1.1-3.3h6.3l1.1 3.3h5.7c-.2.1-7.5-18.1-7.5-18.1zm-4.4 11.5l1.8-5.3 1.9 5.3h-3.7zm73.5-11.5h-17l2.9 3.8h6.2l-8.9 14.3H247v-3.8h-7.7l8.7-14.3zm-43.5 14.4V202h5.5v-3.8h-5.5v-3.3h7.1l-1.5-3.8h-10.3v14.7l1.3 3.3h12.4l-2.5-3.8h-6.5zm18.1-15.3c-5.5 0-10.1 4.5-10.1 10s4.5 10 10.1 10 10.1-4.5 10.1-10-4.6-10-10.1-10zm0 15.9c-3.3 0-6-2.7-6-5.9s2.7-5.9 6-5.9 6 2.7 6 5.9-2.7 5.9-6 5.9zm-.1-5.9l2.9-2.1c-.6-.7-1.5-1.3-2.6-1.3-1.9 0-3.3 1.5-3.3 3.3s1.5 3.3 3.3 3.3c1.1 0 2.1-.5 2.7-1.5l-3-1.7z" fill="#fff" fill-opacity=".2"/></svg>