<?xml version="1.0" encoding="UTF-8"?>
<svg width="146px" height="38px" viewBox="0 0 146 38" version="1.1" xmlns="http://www.w3.org/2000/svg" xmlns:xlink="http://www.w3.org/1999/xlink">
    <title>纵向</title>
    <defs>
        <linearGradient x1="-2.19066607%" y1="10%" x2="102.190666%" y2="80%" id="linearGradient-1">
            <stop stop-color="#FDD518" offset="0%"></stop>
            <stop stop-color="#FDD118" offset="20%"></stop>
            <stop stop-color="#F9B01C" offset="50%"></stop>
            <stop stop-color="#F7931E" offset="70%"></stop>
            <stop stop-color="#F15A24" offset="100%"></stop>
        </linearGradient>
    </defs>
    <g id="页面-1" stroke="none" stroke-width="1" fill="none" fill-rule="evenodd">
        <g id="SEAGM1" transform="translate(-361.000000, -25.000000)" fill-rule="nonzero">
            <g id="纵向" transform="translate(361.000000, 25.000000)">
                <g id="编组-8">
                    <path d="M28.2441176,0 L4.75588235,0 C4.06919118,2.230125 2.28330882,3.99475 0,4.655 L0,19.855 C0,28.682875 4.75588235,31.35 9.70588235,34.1525 L16.5,38 L23.2941176,34.1525 C28.2441176,31.35 33,28.682875 33,19.855 L33,4.655 C30.7166912,3.99475 28.9308088,2.230125 28.2441176,0 Z" id="路径" fill="url(#linearGradient-1)"></path>
                    <path d="M28,1.70210776 C27.8736089,1.47421049 27.7591415,1.23940724 27.6613672,1 C17.9054054,5.34155816 8.94117647,9.84885979 8.10413355,16.0366161 C7.57233704,20.2906985 14.7694754,18.4905402 14.7647059,21.2345155 C14.6335453,24.6759945 11.3783784,28.2601971 7,32.2702683 C7.41255962,32.5188835 7.83227345,32.7605928 8.25675676,33 C14.6049285,29.3927775 20.2257552,26.0203582 23.0826709,23.5503201 C26.6502385,20.0121574 27.4348172,16.4164449 21.7066773,15.4035681 C14.1255962,13.9717287 18.0317965,8.81756708 28,1.70210776 Z" id="路径" fill="#000000" opacity="0.1"></path>
                    <path d="M28,0.700379086 C27.9082764,0.471783134 27.8259604,0.238323439 27.7577556,0 L27.687199,0 C17.9880166,4.6181246 9.02967858,9.39918461 8.19711054,15.9822616 C7.67263971,20.4763608 14.770635,18.574637 14.7659312,21.4734282 C14.6342256,25.1406909 11.3721581,28.9587297 7,33.2363922 C7.38806137,33.4990344 7.78553029,33.7519491 8.1853511,34 C14.5119274,30.1503469 20.1282338,26.5511766 22.9693135,23.9198913 C26.4877366,20.1821043 27.2615074,16.3835205 21.6122746,15.3134969 C14.0909396,13.7911451 18.0350543,8.29025106 28,0.700379086 Z" id="路径" fill="#FFFFFF"></path>
                </g>
                <path d="M47,12.5724242 C47,14.6006061 47.913514,16.419697 49.3529905,17.6254545 C52.5987333,20.2390909 58.4189246,19.639697 58.4189246,22.4275758 C58.4189246,23.3336364 57.6853452,24.0724242 56.7856723,24.0724242 L52.4395604,24.0724242 L52.4395604,21.8839394 L47.5467243,21.8839394 L47.5467243,29 L56.7925929,29 C60.3982048,29 63.3186813,26.0587879 63.3186813,22.4275758 C63.3186813,20.3993939 62.4051674,18.580303 60.9656908,17.3745455 C58.3704807,15.1442424 51.8997567,15.4718182 51.8997567,12.5724242 C51.8997567,11.6663636 52.6333361,10.9275758 53.533009,10.9275758 L57.8860414,10.9275758 L57.8860414,13.1160606 L62.7788776,13.1160606 L62.7788776,6 L53.5260884,6 C49.9204765,6 47,8.94121212 47,12.5724242 Z M67.6703297,24.0714286 L67.6703297,29 L72.4990982,29 L75.2857143,24.0714286 L67.6703297,24.0714286 Z M80.7252747,15.3095238 L67.6703297,15.3095238 L67.6703297,20.2380952 L77.8684141,20.2380952 L80.7252747,15.3095238 Z M85.6208791,6 L67.6703297,6 L67.6703297,10.9285714 L82.8169648,10.9285714 L85.6208791,6 Z M97.043956,29 L97.043956,6 L91.3030847,6 L78.0054945,29 L97.043956,29 Z M92.1483516,14.2142857 L92.1483516,24.0714286 L86.7087912,24.0714286 L92.1483516,14.2142857 Z M101.93956,12.5724242 L101.93956,22.4275758 C101.93956,26.0587879 104.861276,29 108.468418,29 L118.258242,29 L118.258242,19.9672727 L113.36333,19.9672727 L113.36333,24.0724242 L108.468418,24.0724242 C107.568363,24.0724242 106.834472,23.3336364 106.834472,22.4275758 L106.834472,12.5724242 C106.834472,11.6663636 107.568363,10.9275758 108.468418,10.9275758 L118.258242,10.9275758 L118.258242,6 L108.468418,6 C104.861276,6 101.93956,8.94121212 101.93956,12.5724242 Z M140.343846,6 L134.576923,16.0642424 L128.81,6 L123.153846,6 L123.153846,29 L128.048462,29 L128.048462,14.5378788 L134.576923,25.9193939 L146,6 L140.343846,6 Z M141.104396,24.3937282 L141.104396,29 L146,29 L146,15.8571429 L141.104396,24.3937282 Z" id="形状" fill="#000000"></path>
            </g>
        </g>
    </g>
</svg>