<svg xmlns="http://www.w3.org/2000/svg" xmlns:xlink="http://www.w3.org/1999/xlink" viewBox="0 0 64 640" width="64" height="640">
<def>
	<g id="knife">
		<path d="M8.83 15.777c1.802 5.088 4.976 8.734 9.521 10.935 4.546 2.2 6.977 4.025 7.294 5.475l.327 1.856c.103.683.574 1.048 1.412 1.093 1.258.068 1.5-.264 6.487 2.406 4.988 2.67 15.543 8.044 17.996 9.233 1.405-.67 2.449-3.604 2.087-5.445-.881-.781-8.819-5.572-23.813-14.374l-.625-.117-.106-.599-.513.09-.253-.617a254.68 254.68 0 00-4.548-2.312c-1.496-.742-6.584-3.283-15.265-7.624z"/>
	</g>
	<g id="pistol">
		<path d="M19.967 19v2h26c1.335-.1 2.001.17 2 .811-.003.961.003 1.788 0 2.855 1.114.778.846 1.864 0 2.453-2.97.14-3.83 1.487-2.579 4.04 2.744 5.812 4.281 9.092 4.611 9.841-.157.859-.547 1.663-1.17 2.412L39.702 45c-.901-.435-1.226-1.046-.975-1.834.585-.429.757-1.147.515-2.155-1.03-2.12-1.854-4.091-2.473-5.914-.186-1.702-1.175-2.175-2.966-1.42h-1.172c-2.487-.003-4.186-.02-5.098-.05-1.557-.743-1.576-1.864-1.535-3.627-.124-1.496-.49-2.15-1.096-1.964a1011.5 1011.5 0 00-8.886.01c-.336-.007-.665-.24-.937-.599.233-1.677-.126-2.604-1.078-2.78l-.001-.57v-2.41l.001-.12c.007-.411.375-.56.965-.567.117-.002.26-.003.427-.003h.8l.773.003 3-2zm12.892 9.064c-.359.004-.74.006-1.144.007h-.84c-.434-.001-.891-.003-1.372-.007-1.198-.005-1.811.482-1.84 1.461a14.7 14.7 0 01-.03.518l-.02.256c-.088 1.184-.091 2.21 1.89 2.177 1.604-.027 3.051-.027 4.342 0 1.477-1.19 1.59-2.465.343-3.826-.197 2.697-1.122 3.253-1.817 2.78a5.93 5.93 0 01.211-.71l.087-.252c.148-.453.253-.982.19-2.404z"/>
	</g>
	<g id="rifle">
		<path d="M2.579 15.308c.083-.313.316-.458.7-.432l2.79 1.349-.165.236c-.045.02.104.106.445.259s.613.123.818-.085c.386-1.077.733-1.749 1.041-2.014.463-.399.83-.165.978.214.148.377-.024.874-.565 1.733-.36.574-.319.972.127 1.196a28.896 28.896 0 003.652 1.628c1.526-.493 2.508-.737 2.945-.731 5.134 2.535 8.072 3.856 8.813 3.963.282-.468.582-.694.9-.679l10.416 4.979-.27.926c2.323 1.118 6.135 2.872 11.435 5.261 2.394 4.788 4.448 7.088 6.164 6.9l8.095 4.138c-1.577 3.01-3.093 5.23-4.548 6.657-1.99-1.234-5.54-5.1-10.65-11.597-1.084-1.324-1.578-1.468-1.481-.43.145 1.557-.433 5.4-.725 6-.292.602-2.748-.514-2.74-.83.226-3.562.133-3.983-.053-4.1l-.03-.018-.033-.014c-5.397-1.482-3.8-4.079-3.524-4.379.184-.199.2-.38.048-.543-1.113-.652-1.766-.815-1.96-.494-1.435 3.381-5.9 6.284-13.397 8.707-1.821-2.794-2.604-4.243-2.349-4.344 4.906-1.103 8.912-4.046 10.383-6.09-.036-.307-.076-.325-.42-.577-1.819-1.335-4.328-1.756-4.305-2.25.352-.472.286-.787-.197-.949a338.934 338.934 0 01-7.84-3.765c.322-.455.307-.787-.045-.997l-14.93-7.033-.126-.38c.32-.629.52-1.1.603-1.415zm35.84 20.212c-.164.153-1.015 1.5-.165 2.02a14.1 14.1 0 001.988.989c.35.109.603.017.76-.277.156-.294.173-.853.05-1.678l-.51-.28c-.275.56-.537.909-.784 1.046-.063.029-.134-.047-.059-.162.076-.114.557-1.052.114-1.251-.443-.199-1.229-.561-1.393-.407z"/>
	</g>
	<g id="smg">
        <path d="M17.903 15.148c.35-.269.964-.171 1.839.292.001 1.158.005 2.368.011 3.63l23.082.48c.052-1.027.16-1.541.323-1.54h3.083c.33.45.486.963.47 1.54 3.17.098 2.213 8.01 1.669 8.028-2.686.592-3.552 1.952-2.6 4.08a93.347 93.347 0 002.81 5.767c1.516 2.86-1.574 3.847-2.81 4.511-.942.223-1.303-.243-1.081-1.397l-2.448-6.37c-1.083.795-2.19 1.127-3.322.998-1.697-.195-1.647-1.099-2.16-2.5-.341-.934-.793-1.381-1.355-1.343.748 1.468 1.024 2.216.826 2.243-.296.042-1.06.106-1.171 0-.112-.105-.302-2.483-.492-2.461-.095.011-1.022 4.245-1.943 8.565l-.243 1.143c-.834 3.924-1.602 7.618-1.67 7.945-.152.72-4.72-.329-4.545-1.11.176-.78 3.655-17.238 3.935-17.767-.253-.261-.32-.21-.27-.523.19-.74.28-1.715.27-2.928-1.545.09-2.68.12-3.403.09-.723-.03-1.11.243-1.159.819.006 1.775.01 3.258.011 4.45v.529l.001.249V34.02a61.744 61.744 0 01-.012 1.35c-.023.657-3.37.543-3.365 0v-.187l.001-.07.001-.495V30.88v-1.928l-.001-.355v-1.12l-.001-.392c-.295-.399-.634-.587-1.016-.564-.99-.174-1.588.014-1.794.564-.038.61-.038 1.131 0 1.561.039.43-.066.668-.314.713-1.108.134-1.662.022-1.661-.337 0-.54-.059-1.813.009-2.501-.232-.619-.503-1.14-.816-1.565-.57-.075-.98-.119-1.227-.133-.487-.565-.487-1.165 0-1.801h.587l.35-.561h.607a3.27 3.27 0 000 .561c.563-.115.41-.798.353-1.27-.695-1.06-.695-2.052 0-2.976a4.122 4.122 0 010-.829c-.302-1.174-.088-2.107.641-2.8zm23.17 15.846c-.157.029.037 2.525-.972 2.893-.844.268-.673.033-.555-.164.118-.198.451-1.432-.092-2.685-.004-.08-2.157-.027-1.943.858.214.885.288 1.709.833 2.33.3.148.695.393 2.11.09 1.38-.343 1.285-1.256 1.265-1.526-.02-.27-.49-1.825-.647-1.796z"/>
    </g>
    <g id="heavy">
        <path d="M5.238 15l.069.018.11.031.08.024.125.038.135.043.144.047.1.034.16.054.168.06.237.085.19.069.265.099.21.08.294.112.31.12.41.162.347.138.362.145.378.154.394.161.515.213.54.225.682.286.84.355.76.324.662.284.403.634 4.898 1.921.614-.121 4.446 1.645 1.364-3.792.746.26-.082 2.189.928.216.77-2.318.954.301.17 2.858 18.397 6.365.387 1.832 3.682.751c.226.599.45 1.247.673 1.945l.204.048c.172.042.35.087.533.135l.222.06.227.061.232.066.238.068.243.07.248.075.12.036.568 2.081c.87-.02 1.656.192 2.36.637.648-.384 1.854-.291 2.73.277v7.407c-.29.714-.716 1.1-1.28 1.157-.804-.024-1.387-.748-1.751-2.173l-.015-.058-2.044-4.337-.4-.002-.564-.001-1.282.002-.589.001c-1.085.004-1.728.703-1.93 2.096l-.014.103-.013.105a6.93 6.93 0 00-.027.332l-.007.116-.004.118c-.003.08-.004.16-.004.243l.084.286.081.28.04.138.077.27.038.134.073.263.036.129.069.254.033.125.065.245.062.24.03.117.058.23.056.226.026.11.051.216c.058.25.11.487.158.712l.038.19.019.094.034.181c.023.12.043.235.061.347l.027.164c.233 1.508.106 2.26-.381 2.26l-9.415.018-1.708.001-2.641-.002-1.77-.009-.445-.006-.113-.002c-3.104-1.171-2.783-4.317.965-9.438l-.367-.565-.465-.712-.595-.906-.448-.677-.413-.62-.338-.503-.235-.347-.255-.373-.137-.198-.16-.23-5.713-.953-.936-2.075-.68-.432-.103.85-.063.499-.068.514-.045.316-.017.108a6.77 6.77 0 01-.003.019c-.03.18-.33.256-.695.26H23.946l-.069-.002-.034-.002-.07-.004-.07-.006a3.697 3.697 0 01-.036-.004l-.07-.008-.07-.009a3.68 3.68 0 01-.07-.01l-.068-.012a3.461 3.461 0 01-.034-.007l-.067-.013a3.114 3.114 0 01-.065-.015l-.064-.015c-.333-.087-.578-.218-.549-.364l.059-.305.126-.684.16-.9.183-1.038.204-1.181a1.446 1.446 0 01-.105-.39l-.009-.065-.007-.068a3.387 3.387 0 01-.008-.107l-.004-.075a4.645 4.645 0 01-.005-.16v-.083l.001-.087.003-.09.001-.046.005-.094.005-.098.007-.1.008-.103.005-.053.01-.107.011-.11.006-.057.013-.115.015-.118.016-.121.017-.124.018-.127.02-.13.01-.066.022-.134.023-.138.024-.14.012-.071.027-.145.041-.222.03-.151-5-1.896-.348-.524-.901-.336-.734-.271-.732-.267-.46-.166-.415-.147-.218-.076-.204-.071-.322-.11-.125-.04-.19-.063-.168-.053-.119-.035-.104-.03-.047-.013-.063-.017-.056-.013-.032-.007-.03-.005a.85.85 0 00-.012-.003l-.024-.003-.02-.002h-.024a.08.08 0 00-.006 0l-.033.006-.071.013c-.087.017-.184.04-.291.07l-.095.025-.1.03c-.035.01-.07.02-.106.032l-.055.017-8.215-3.057c-.515-1.37-.18-2.448 1.004-3.232zm51.737 22.457l-.856-.072.001 1.135.96 1.988-.105-3.051zm-21.958-2.711c1.175 1.397 2.08 2.81 2.713 4.24.529-.022 1.21-.178 2.044-.468v-2.94l-4.757-.832z"/>
    </g>
    <g id="glove">
        <path d="M29.844 18.504l12.61 2.969c.075.046.142.161.2.346.197.627.586.99 1.167 1.09.529.228 1.123.43 1.782.603.278.073.512.44.379.893-.45 1.527-.873 2.684-1.063 3.079-.19.395-.57.235-.918.138a91.556 91.556 0 00-1.809-.459c-.142-.056-.326-.036-.381.167-.056.203.008.307.144.374l3.42 1.342c.28.245.529.557.744.936.112.197 1.324.995 3.634 2.395.415.302.268.723-.147 1.418a64.76 64.76 0 01-2.122 3.202c-.258.351-.603.393-1 .105-.264-.192-.992-.77-2.183-1.735a.289.289 0 00-.415.026c-.112.134-.097.289.006.399l.02.02a303.65 303.65 0 012.158 1.872c.345.303.53.731.222 1.148a68.614 68.614 0 01-2.417 3.056c-.22.258-.75.212-1.02-.036-.232-.215-1.08-.983-2.545-2.303-.113-.102-.304-.115-.415.026-.11.14-.096.288.007.399a701.922 701.922 0 012.056 1.878c.232.214.522.48.119.928-.454.506-1.646 1.593-2.242 2.11-.35.304-.84.178-1.215-.123-.25-.2-1.017-.894-2.3-2.082a.305.305 0 00-.415.026.298.298 0 00.006.399l1.028.946c.421.398.242.928-.048 1.21-.29.281-.716.76-1.112 1.05-.716.523-1.33.872-1.694.574-.429-.352-.897-.812-1.62-1.614-.856-.95-2.006-2.345-3.235-3.472-.965-.885-2.926-3.645-3.95-4.389-1.932-1.401-3.69-3.7-4.28-4.415.448-6.36 3.396-11.193 8.844-14.496zm-1.938-1.127c.039.024.334.197.887.52-6.172 4.68-8.523 8.945-8.789 14.48-.51.037-.725-.113-.993-.364-.169-5.884 2.796-10.762 8.895-14.636zM26 16c.485-.002.761.385 1 1-6.193 4.206-9.162 9.001-9 14-.327-.239-.66-.572-1-1-.158-1.068-.491-1.735-1-2 1.462-9.45 8.888-11.996 10-12z"/>
    </g>
    <g id="sticker">
        <path d="M32 18l.4.184C35.638 19.677 39.838 21.615 45 24c-.006 10.652-4.34 17.985-13 22-8.66-4.015-12.994-11.348-13-22 5.162-2.385 9.362-4.323 12.6-5.816L32 18zm0 4l-2.351 4.764-5.257.764 3.804 3.708-.898 5.236L32 34l4.702 2.472-.898-5.236 3.805-3.708-5.258-.764L32.001 22z"/>
    </g>
    <g id="kits">
        <path d="M46 25.848l-13.366 6.028V45L46 38.972V25.848zm-28 0v13.124L31.366 45V31.876L18 25.848zm21-3.83L26.527 28.19l5.603 2.533 13.063-5.904L39 22.018zM32.126 19l-13.089 5.909 5.939 2.68 12.497-6.177L32.126 19z"/>
    </g>
    <g id="other">
        <path d="M52 20a4 4 0 014 4v16a4 4 0 01-4 4H12a4 4 0 01-4-4V24a4 4 0 014-4h40zM15 34a3 3 0 100 6 3 3 0 000-6zm34 0a3 3 0 100 6 3 3 0 000-6zm-7 1H22v4h20v-4zm-27 1a1 1 0 110 2 1 1 0 010-2zm34 0a1 1 0 110 2 1 1 0 010-2zm-3.878-10a2.104 2.104 0 00-1.443.564 1.929 1.929 0 00-.44.631 1.978 1.978 0 00-.161.805 1.929 1.929 0 00.601 1.436 2.104 2.104 0 001.444.564c.31 0 .588-.05.831-.152s.45-.244.623-.426c.15-.16.264-.345.343-.556a2.051 2.051 0 00.105-.914 1.524 1.524 0 00-.03-.166h-1.894v.695h1.11l-.035.094c-.026.06-.056.118-.09.171a.955.955 0 01-.17.2c-.196.175-.46.263-.788.263-.168 0-.326-.03-.472-.089a1.21 1.21 0 01-.387-.246 1.115 1.115 0 01-.26-.38 1.257 1.257 0 01-.094-.494c0-.182.031-.347.094-.495a1.134 1.134 0 01.638-.625c.145-.06.3-.089.465-.089.21 0 .387.033.528.1.142.065.275.16.4.285l.569-.556-.143-.136a2.034 2.034 0 00-.493-.318 2.027 2.027 0 00-.85-.166zm-28.156.086H16v3.828h.826V28.15l-.053-.738h.053l1.47 2.502h.88v-3.828h-.826v1.625l.054.738h-.054l-1.384-2.363zm8.854 0h-.826v3.828h.826V28.22l-.054-.641h.054l.875 1.524h.494l.874-1.524h.054l-.054.641v1.695h.827v-3.828h-.827l-1.094 1.871h-.054l-1.095-1.871zm6.912 0h-2.533v3.828h2.533v-.791h-1.696v-.727h1.524v-.792h-1.524v-.727h1.696v-.791zm5.43 0H35.18v.791h1.073v3.037h.837v-3.037h1.073v-.791zm-15.594 0h-.966l-1.438 3.828h.923l.295-.855h1.406l.295.855h.923l-1.438-3.828zm18.38 0h-.966l-1.439 3.828h.923l.296-.855h1.405l.296.855h.923l-1.439-3.828zm-18.836.94l.129.471.279.802h-.87l.28-.802.128-.47h.054zm18.38 0l.128.471.28.802h-.87l.279-.802.129-.47h.053z"/>
    </g>
</def>
<linearGradient id="aa" gradientUnits="userSpaceOnUse" x1="0" y1="0" x2="0" y2="64">
	<stop offset="0" stop-color="#D7BF97"/>
	<stop offset="1" stop-color="#9E865E"/>
</linearGradient>
<use fill="url(#aa)" xlink:href="#knife"/>
<use fill="url(#aa)" xlink:href="#pistol" y="64"/>
<use fill="url(#aa)" xlink:href="#rifle" y="128"/>
<use fill="url(#aa)" xlink:href="#smg" y="192"/>
<use fill="url(#aa)" xlink:href="#heavy" y="256"/>
<use fill="url(#aa)" xlink:href="#glove" y="320"/>
<use fill="url(#aa)" xlink:href="#sticker" y="384"/>
<use fill="url(#aa)" xlink:href="#kits" y="448"/>
<use fill="url(#aa)" xlink:href="#other" y="512"/>
</svg>
